<?xml version="1.0" standalone="no"?><!DOCTYPE svg PUBLIC "-//W3C//DTD SVG 1.1//EN" "http://www.w3.org/Graphics/SVG/1.1/DTD/svg11.dtd"><svg t="1638857679128" class="icon" viewBox="0 0 1090 1024" version="1.1" xmlns="http://www.w3.org/2000/svg" p-id="3074" xmlns:xlink="http://www.w3.org/1999/xlink" width="34.0625" height="32"><defs><style type="text/css"></style></defs><path d="M849.170732 320.520325c0-54.946341-15.817886-72.429268-80.754472-72.429268H328.013008c-54.946341 0-69.099187 30.803252-69.099187 72.429268 0 166.504065 0.83252 237.268293 0.83252 403.772358 0 47.453659 29.970732 66.601626 61.606505 66.601626h341.333333c22.478049 0 20.813008-27.473171-0.83252-27.473171H319.687805c-24.143089 0-32.468293-12.487805-32.468293-32.468292V628.552846c0-5.827642 1.665041-9.990244 5.827642-14.152846 40.793496-40.793496 73.261789-81.586992 114.055285-121.547967 14.152846-14.152846 14.152846-14.152846 28.305691 0l182.321951 182.321951c13.320325 13.320325 17.482927 13.320325 30.803252 0 29.970732-28.305691 51.61626-56.611382 81.586992-84.917073 13.320325-12.487805 16.650407-16.650407 28.305691-3.330082 13.320325 13.320325 39.960976 3.330081 35.798374-1.66504L782.569106 571.941463l-4.162602-4.162601c-20.813008-23.310569-34.965854-19.980488-58.276423 1.66504-27.473171 25.80813-54.946341 52.44878-82.419512 78.256911-1.665041 1.665041-3.330081 2.497561-4.995122 4.162602L522.822764 541.970732c-22.478049-23.310569-45.788618-45.788618-68.266666-68.266667-24.97561-24.97561-42.458537-24.97561-67.434147 0-33.300813 33.300813-58.276423 66.601626-91.577236 99.069919-2.497561 2.497561-4.162602 5.827642-9.157723 6.660162v-6.660162-253.918699c0-28.305691 15.817886-44.123577 45.788618-44.123578H774.243902c25.80813 0 48.286179 15.817886 48.286179 44.956098v258.913821c0 19.147967 27.473171 22.478049 27.473171 0 0-101.56748-0.83252-134.035772-0.83252-258.081301z" p-id="3075" fill="#8a8a8a"></path><path d="M601.912195 796.721951H322.185366c-32.468293 0-67.434146-19.147967-67.434146-72.429268 0-82.419512 0-142.360976-0.832521-200.637398 0-59.941463-0.83252-119.050407-0.83252-203.13496 0-33.300813 7.492683-78.256911 74.926829-78.25691h440.403252c65.769106 0 86.582114 18.315447 86.582114 78.25691 0 76.59187 0 118.217886 0.83252 163.173984 0 27.473171 0 56.611382 0.832521 95.739837 0 8.325203-3.330081 13.320325-5.827643 15.817887-3.330081 3.330081-8.325203 5.827642-13.320325 5.827642-9.990244 0-19.980488-8.325203-19.980488-21.645529v-65.769105-193.144716c0-26.64065-22.478049-39.128455-42.458536-39.128455H333.00813c-25.80813 0-39.960976 13.320325-39.960976 38.295935v248.923577c15.817886-15.817886 30.803252-32.468293 44.956098-49.118699 14.152846-16.650407 29.138211-33.300813 45.788618-49.95122 27.473171-27.473171 48.286179-27.473171 75.75935 0l68.266666 68.266667 105.730081 105.730081 0.832521-0.83252 24.143089-23.310569c19.147967-18.315447 38.295935-36.630894 58.276423-54.946342 10.822764-10.822764 23.310569-19.980488 36.630894-19.147967 9.990244 0.83252 19.147967 5.827642 29.970732 18.315447 0 0.83252 0.83252 0.83252 0.83252 1.665041l14.985366 15.817886c1.665041 1.665041 2.497561 4.162602 1.665041 6.660163-1.665041 4.995122-7.492683 7.492683-12.487805 9.157723-9.990244 2.497561-23.310569 2.497561-32.468293-6.660162l-0.83252-0.832521c-4.162602-4.995122-6.660163-5.827642-7.492683-5.827642-1.665041 0-6.660163 4.162602-10.822764 8.325203l-1.665041 1.665041c-14.985366 14.152846-28.305691 28.305691-40.793496 42.458536-12.487805 14.152846-25.80813 28.305691-40.793496 42.458537-15.817886 14.985366-23.310569 14.985366-38.295935 0L431.245528 497.014634c-4.162602-4.162602-8.325203-8.325203-9.990243-9.157723-1.665041 0-5.827642 4.995122-9.990244 9.157723-19.980488 19.980488-38.295935 39.960976-55.778862 59.941464-18.315447 19.980488-37.463415 41.626016-58.276423 62.439024-3.330081 3.330081-4.162602 5.827642-4.162602 9.990244v102.4c0 19.147967 7.492683 26.64065 26.640651 26.64065h342.165854c14.152846 0 22.478049 9.990244 22.478048 19.980488 0 4.995122-1.665041 9.990244-5.827642 13.320325-2.497561 2.497561-7.492683 5.827642-15.817886 5.827643h-60.773984z m-46.621138-11.655284h107.395122c3.330081 0 6.660163-0.83252 8.325203-2.497561 1.665041-0.83252 1.665041-2.497561 1.665041-4.995122 0-4.162602-3.330081-8.325203-10.822764-8.325204H319.687805c-25.80813 0-38.295935-12.487805-38.295935-38.295934v-41.626017-60.773983c0-7.492683 2.497561-13.320325 7.492683-18.315448 20.813008-20.813008 39.960976-41.626016 57.443902-61.606504 17.482927-19.980488 35.798374-39.960976 56.611382-59.941463 16.650407-16.650407 19.980488-16.650407 36.630895 0l182.321951 182.321951c10.822764 10.822764 11.655285 10.822764 22.478049 0 14.985366-14.152846 27.473171-28.305691 39.960975-41.626016 13.320325-14.152846 26.64065-29.138211 41.626017-43.291057l1.66504-1.665041c7.492683-7.492683 12.487805-11.655285 19.980488-11.655284 6.660163 0 11.655285 4.995122 15.817886 9.990244 6.660163 6.660163 18.315447 4.995122 24.14309 3.330081L776.741463 574.439024l-1.66504-1.66504-0.832521-0.832521c-8.325203-9.157724-14.985366-14.152846-21.645528-14.152845-7.492683 0-15.817886 4.162602-28.305691 16.650406-19.147967 18.315447-39.128455 36.630894-58.276423 54.946342l-24.143089 23.310569c-0.83252 0.83252-2.497561 1.665041-3.330082 3.330081l-5.827642 4.995122-113.222764-114.055284c-22.478049-23.310569-45.788618-45.788618-68.266667-68.266667-22.478049-22.478049-36.630894-22.478049-59.108943 0-16.650407 16.650407-30.803252 33.300813-44.956097 49.118699-14.152846 16.650407-29.138211 33.300813-46.621139 49.95122 0 0-0.83252 0.83252-0.83252 1.66504-1.665041 2.497561-4.995122 5.827642-10.822764 6.660163l-7.492683 1.665041v-14.152846-126.543089-126.54309c0-31.635772 19.147967-49.95122 51.61626-49.951219H775.076423c26.64065 0 54.113821 17.482927 54.113821 50.78374v258.913821c0 7.492683 4.995122 9.990244 8.325203 9.990244 1.665041 0 3.330081 0 4.162602-1.665041 1.665041-1.665041 2.497561-4.162602 2.497561-7.492683 0-39.128455 0-67.434146-0.832521-94.907317 0-44.956098-0.83252-86.582114-0.83252-163.173984 0-49.118699-11.655285-66.601626-74.926829-66.601626H328.013008c-44.123577 0-63.271545 19.980488-63.271545 66.601626 0 84.084553 0 143.193496 0.832521 203.13496 0 59.108943 0.83252 118.217886 0.83252 201.469918 0 56.611382 42.458537 60.773984 55.778862 60.773984l233.105691-3.330081zM790.894309 589.42439z" p-id="3076" fill="#8a8a8a"></path><path d="M619.395122 417.092683c-0.83252-27.473171 23.310569-52.44878 51.61626-52.448781 29.970732 0.83252 51.61626 20.813008 52.448781 50.78374 0 29.138211-19.147967 51.61626-50.78374 52.448781-29.138211 0.83252-51.61626-19.980488-53.281301-50.78374z m27.473171-0.83252c0 13.320325 10.822764 24.97561 24.143089 25.80813 12.487805 0 24.97561-11.655285 25.80813-24.97561 0.83252-13.320325-10.822764-24.97561-24.143089-24.97561-14.985366-0.83252-25.80813 9.990244-25.80813 24.14309z" p-id="3077" fill="#8a8a8a"></path><path d="M670.178862 473.704065c-31.635772 0-54.946341-23.310569-56.611382-56.611382 0-14.985366 5.827642-29.970732 16.650406-41.626016 10.822764-10.822764 24.97561-16.650407 39.960976-16.650407 34.133333 0.83252 57.443902 24.143089 57.443902 56.611382 0 34.133333-22.478049 57.443902-56.611382 58.276423h-0.83252zM625.222764 416.260163c1.665041 26.64065 19.980488 45.788618 44.956098 45.788617h0.83252c27.473171-0.83252 45.788618-19.147967 45.788618-46.621138 0-26.64065-19.147967-44.956098-46.621138-45.788618h-0.832521c-11.655285 0-22.478049 4.995122-30.803252 13.320326-8.325203 9.990244-13.320325 21.645528-13.320325 33.300813z m45.788618 30.803252c-17.482927-0.83252-30.803252-14.985366-30.803252-31.635773 0-8.325203 3.330081-15.817886 9.157724-21.645528 5.827642-5.827642 13.320325-8.325203 21.645528-8.325203s15.817886 3.330081 21.645529 9.990243c5.827642 5.827642 8.325203 13.320325 8.325203 21.645529 0.83252 15.817886-14.152846 29.970732-29.970732 29.970732z m0-49.1187c-4.995122 0-9.990244 1.665041-13.320325 4.995122-3.330081 3.330081-5.827642 8.325203-5.827642 13.320326 0 9.990244 8.325203 19.147967 18.315447 19.980487 9.157724 0 19.147967-9.157724 19.147967-19.147967 0-4.162602-1.665041-9.157724-4.995122-12.487805-2.497561-4.995122-7.492683-6.660163-13.320325-6.660163 0.83252 0 0 0 0 0z" p-id="3078" fill="#8a8a8a"></path><path d="M871.64878 708.474797h-59.108943V649.365854c0-11.655285-9.157724-20.813008-20.813008-20.813008s-20.813008 9.157724-20.813008 20.813008v59.108943h-51.61626c-11.655285 0-20.813008 9.157724-20.813008 20.813008s9.157724 20.813008 20.813008 20.813008h51.61626v59.108943c0 11.655285 9.157724 20.813008 20.813008 20.813008s20.813008-9.157724 20.813008-20.813008v-59.108943h59.108943c11.655285 0 20.813008-9.157724 20.813009-20.813008 0-10.822764-9.157724-20.813008-20.813009-20.813008z" p-id="3079" fill="#8a8a8a"></path></svg>