<?xml version="1.0" standalone="no"?>
<!DOCTYPE svg PUBLIC "-//W3C//DTD SVG 1.1//EN" "http://www.w3.org/Graphics/SVG/1.1/DTD/svg11.dtd" >
<!--
2013-9-30: Created.
-->
<svg>
<metadata>
Created by iconfont
</metadata>
<defs>

<font id="iconfont" horiz-adv-x="1024" >
  <font-face
    font-family="iconfont"
    font-weight="500"
    font-stretch="normal"
    units-per-em="1024"
    ascent="896"
    descent="-128"
  />
    <missing-glyph />
    
    <glyph glyph-name="shijian" unicode="&#58900;" d="M512.672312-142.642352c-245.069555 0-443.74036 198.670805-443.74036 443.74343 0 245.069555 198.670805 443.74343 443.74036 443.74343 245.074671 0 443.74343-198.672852 443.74343-443.74343C956.415742 56.028453 757.746984-142.642352 512.672312-142.642352zM512.672312 678.264113c-208.300117 0-377.160989-168.860872-377.160989-377.163035s168.860872-377.165082 377.160989-377.165082c208.302163 0 377.163035 168.862919 377.163035 377.165082S720.974475 678.264113 512.672312 678.264113zM726.380602 244.374098 501.720889 244.374098c-6.456039 0-12.217253 2.741437-16.359596 7.059789-4.318352 4.142343-7.063883 9.904581-7.063883 16.361643L478.29741 538.355643c0 12.571317 10.190083 22.7614 22.7614 22.7614l22.598694 0c12.56927 0 22.759353-10.190083 22.759353-22.7614l0-225.863121 179.963745 0c12.56927 0 22.759353-10.190083 22.759353-22.7614l0-22.598694C749.138932 254.563158 738.949872 244.374098 726.380602 244.374098z"  horiz-adv-x="1024" />

    
    <glyph glyph-name="118" unicode="&#58935;" d="M878.08 141.28c-69.12 56.32-174.08 92.16-202.24 58.88-25.6-30.72-48.64-53.76-76.8-51.2-97.28 12.8-168.96 102.4-199.68 148.48-66.56 99.84-51.2 125.44-23.04 140.8 51.2 28.16 76.8 110.08 23.04 171.52C348.16 671.2 256 850.4 135.68 755.68 23.04 666.08-5.12 556 61.44 399.84c64-148.48 391.68-565.76 691.2-583.68 156.16-7.68 245.76 140.8 248.32 184.32C1000.96 38.88 944.64 90.08 878.08 141.28L878.08 141.28zM926.72 0.48c-15.36-30.72-28.16-51.2-58.88-74.24-23.04-17.92-61.44-43.52-110.08-40.96C481.28-96.8 199.68 271.84 135.68 397.28c-30.72 64-48.64 145.92-40.96 189.44 12.8 56.32 38.4 87.04 79.36 117.76 56.32 40.96 112.64-40.96 168.96-130.56 20.48-33.28 35.84-64-12.8-94.72-40.96-25.6-51.2-87.04-17.92-156.16 46.08-97.28 189.44-248.32 291.84-245.76 56.32 2.56 89.6 46.08 104.96 61.44 20.48 20.48 76.8-12.8 117.76-43.52C875.52 61.92 934.4 13.28 926.72 0.48L926.72 0.48zM926.72 0.48"  horiz-adv-x="1024" />

    
    <glyph glyph-name="shenfenzhengrenzheng" unicode="&#59015;" d="M512 896C230.4 896 0 665.6 0 384s230.4-512 512-512 512 230.4 512 512S793.6 896 512 896zM512-64c-249.6 0-448 198.4-448 448 0 249.6 198.4 448 448 448s448-198.4 448-448C960 134.39999999999998 761.6-64 512-64zM198.4 460.8l192 0c19.2 0 32 12.8 32 32 0 19.2-12.8 32-32 32l-192 0C179.2 524.8 166.4 512 166.4 492.8 166.4 480 179.2 460.8 198.4 460.8zM198.4 332.79999999999995l192 0c19.2 0 32 12.8 32 32 0 19.2-12.8 32-32 32l-192 0C179.2 396.8 166.4 384 166.4 364.79999999999995 166.4 352 179.2 332.79999999999995 198.4 332.79999999999995zM390.4 268.79999999999995l-192 0c-19.2 0-32-12.8-32-32 0-19.2 12.8-32 32-32l192 0c19.2 0 32 12.8 32 32C422.4 256 409.6 268.79999999999995 390.4 268.79999999999995zM857.6 204.79999999999995c0 70.4-38.4 134.4-102.4 166.4 19.2 25.6 38.4 51.2 38.4 89.6 0 70.4-57.6 128-128 128-70.4 0-128-57.6-128-128 0-32 12.8-64 38.4-89.6C512 345.6 473.6 281.6 473.6 204.79999999999995c0 0 0 0 0 0l0 0c0-19.2 12.8-32 32-32s32 12.8 32 32l0 0c0 0 0 0 0 0 0 70.4 57.6 128 128 128s128-57.6 128-128c0 0 0 0 0 0l0 0c0-19.2 12.8-32 32-32S857.6 192 857.6 204.79999999999995L857.6 204.79999999999995C857.6 204.79999999999995 857.6 204.79999999999995 857.6 204.79999999999995zM665.6 396.8c-38.4 0-64 25.6-64 64 0 38.4 25.6 64 64 64 38.4 0 64-25.6 64-64C729.6 428.8 704 396.8 665.6 396.8z"  horiz-adv-x="1024" />

    
    <glyph glyph-name="shezhi" unicode="&#59045;" d="M512.131556 479.552154C413.335298 479.552154 332.956626 399.033067 332.956626 300.062268 332.956626 201.089411 413.334271 120.570324 512.131556 120.570324 610.928841 120.570324 691.305456 201.090443 691.305456 300.062268 691.305456 399.033067 610.928841 479.552154 512.131556 479.552154L512.131556 479.552154ZM512.131556 170.854997C441.013044 170.854997 383.152975 228.818447 383.152975 300.062271 383.152975 371.309181 441.013044 429.27366 512.131556 429.27366 583.251094 429.27366 641.10911 371.309181 641.10911 300.062271 641.10911 228.817416 583.251094 170.854997 512.131556 170.854997L512.131556 170.854997ZM903.252553 432.063134 881.692427 432.063134 879.179631 438.76508 879.062519 439.015208C878.827265 439.511343 878.597147 440.011596 878.389631 440.5417L878.350593 440.640513C875.272777 448.679556 872.405559 455.625453 869.58457 461.874497L866.606401 468.47145 881.867071 483.782687C904.519223 506.465961 916.991775 536.628324 916.991775 568.715527 916.991775 600.803759 904.517167 630.973328 881.865015 653.669983L865.110642 670.459333C842.460543 693.143636 812.347051 705.635545 780.313516 705.635545 748.282039 705.635545 718.171626 693.143636 695.530774 670.46345L680.258808 655.154273 673.666567 658.138291C666.920233 661.194363 659.397253 664.282342 650.66924 667.579277L643.901333 670.136125 643.901333 691.873446C643.901333 758.111653 590.10735 812 523.985666 812L500.283605 812C434.161921 812 380.367941 758.110626 380.367941 691.873446L380.367941 670.136125 373.599004 667.579277C364.898729 664.292636 357.378829 661.204657 350.608868 658.138291L344.018683 655.155303 328.739526 670.461391C306.096618 693.143636 275.987235 705.635545 243.95781 705.635545 211.927359 705.635545 181.813865 693.143636 159.165822 670.461391L142.405284 653.668956C119.756214 630.97436 107.282634 600.803762 107.282634 568.715529 107.282634 536.628326 119.756214 506.464935 142.409393 483.776513L157.672115 468.468366 154.687784 461.868322C151.847275 455.583254 149.060188 448.837047 145.89505 440.576698 145.678287 440.019831 145.439952 439.500023 145.195452 438.986387L145.082448 438.744495 142.560406 432.061078 121.01672 432.061078C54.895036 432.061078 1.101054 378.172733 1.101054 311.935556L1.101054 288.18384C1.101054 221.94975 54.895036 168.061405 121.01672 168.061405L142.584034 168.061405 145.092721 161.352252 145.20367 161.115508C145.445088 160.605992 145.679314 160.092358 145.918677 159.479906 149.00163 151.428515 151.869875 144.484676 154.687783 138.251074L157.672114 131.652059 142.404255 116.337735C119.756213 93.654459 107.282633 63.491067 107.282633 31.402836 107.282633-0.685397 119.756213-30.853936 142.405283-53.547504L159.165821-70.338911C181.813864-93.022186 211.927358-105.515125 243.958836-105.515125 275.989288-105.515125 306.098671-93.022186 328.740552-70.338911L344.020736-55.032822 350.610921-58.01787C357.390129-61.087322 364.907973-64.173244 373.595922-67.450621L380.368967-70.00541 380.368967-91.753025C380.368967-157.991232 434.162948-211.879578 500.284631-211.879578L523.986693-211.879578C590.10735-211.879578 643.902359-157.990203 643.902359-91.753025L643.902359-70.00541 650.676429-67.450621C659.39006-64.162951 666.910986-61.080117 673.666567-58.01787L680.259832-55.032822 695.529745-70.338911C718.17265-93.022186 748.283063-105.515125 780.312487-105.515125 812.344993-105.515125 842.459514-93.022186 865.10961-70.34097L881.866039-53.549563C904.518193-30.853937 916.991773-0.68334 916.991773 31.402835 916.991773 63.491067 904.518193 93.654459 881.859877 116.34391L866.605372 131.649998 869.583541 138.246955C872.419939 144.529965 875.287157 151.472772 878.37422 159.541666 878.588927 160.092356 878.82418 160.605989 879.066625 161.115506L879.173464 161.342987 881.669825 168.061405 903.254603 168.061405C969.376286 168.061405 1023.170269 221.950779 1023.170269 288.183838L1023.170269 311.935553C1023.16719 378.174789 969.374236 432.063134 903.252553 432.063134L903.252553 432.063134ZM972.977006 288.192073C972.977006 283.663036 972.514716 279.065033 971.61685 274.60496 971.278866 272.850987 970.784729 271.360521 970.38819 270.164443 970.26594 269.796976 970.142663 269.431564 970.030686 269.061007L969.724549 267.950363C969.230412 266.129484 968.668475 264.068771 967.77677 261.866012 966.85322 259.617963 965.762219 257.650918 964.800658 255.913415L964.213038 254.84909C964.04353 254.538234 963.884298 254.219143 963.721984 253.901081 963.240176 252.948953 962.64331 251.770375 961.825574 250.532096 959.920942 247.569692 957.767705 244.966525 955.909304 242.808025L955.836365 242.72568C955.762399 242.634071 955.690488 242.537313 955.61652 242.443645 955.276482 241.998976 954.810084 241.392701 954.193697 240.732905 951.785687 238.152381 949.072566 235.702584 945.842709 233.203379 945.566362 232.967662 945.286933 232.739151 944.990042 232.517847 934.757023 224.800983 922.479657 220.101077 909.518106 218.929705 909.033217 218.884414 908.554492 218.817508 908.075767 218.751632 906.76081 218.571497 905.125336 218.347105 903.253579 218.347105L844.328191 218.347105C836.265873 185.744208 822.770122 153.780525 804.116255 123.11482L846.3787 80.796109C857.024698 70.132283 863.777197 56.409298 865.911943 41.067184 865.958171 40.729565 865.987964 40.40018 866.016729 40.028593 866.5273 35.93496 866.710161 32.256147 866.578664 28.863486 866.5499 27.942238 866.454361 27.148627 866.384503 26.569116 866.363957 26.405452 866.342384 26.242819 866.330057 26.100773 866.112268 23.209394 865.814348 19.833202 865.060305 16.463186 864.76752 15.108592 864.383308 13.910456 864.074088 12.943917 863.953893 12.569243 863.831643 12.19045 863.721722 11.8096 863.721722 11.8096 863.440237 10.844092 863.315934 10.415891 862.781733 8.564132 862.177676 6.464306 861.241799 4.269781 860.366532 2.167896 859.329978 0.327459 858.412592-1.296818 858.206102-1.662229 857.999613-2.029699 857.751003-2.476427 857.532187-2.865513 857.333918-3.262832 857.133593-3.659123 856.602475-4.705948 855.944998-6.005988 855.036855-7.363671 852.43982-11.252467 849.528427-14.827319 846.3787-17.989411L829.599669-34.796259C826.459187-37.9285 822.906754-40.837377 819.040993-43.439516L818.934154-43.510539C817.613033-44.376203 816.344307-45.023649 815.324191-45.54346 814.91224-45.751384 814.497208-45.960337 814.115049-46.173407L813.157599-46.716892C811.470758-47.678283 809.558935-48.771428 807.445763-49.651503 805.295606-50.566574 803.258455-51.158437 801.460664-51.681335 800.986048-51.819265 800.50835-51.958224 800.031678-52.101301L799.810806-52.166148C799.440975-52.271139 799.074225-52.389511 798.70645-52.507885 797.757217-52.812566 796.580949-53.191357 795.231066-53.475452 791.787528-54.238183 788.434391-54.558304 785.604158-54.771375L785.491154-54.777551C785.326784-54.789904 785.163441-54.811519 784.999071-54.831076 784.471035-54.890778 783.755001-54.970035 782.926992-54.998857 782.1411-55.032824 781.356237-55.050323 780.570345-55.050323 777.846951-55.050323 774.922205-54.851663 771.630708-54.44405L771.56393-54.435815C771.249575-54.409053 770.934191-54.378173 770.619835-54.332882 755.36944-52.196 741.677472-45.437441 731.019148-34.780821L688.819371 7.489512C658.18914-11.241147 626.264502-24.784 593.701904-32.859068L593.701904-91.747882C593.701904-93.605817 593.481033-95.235241 593.304336-96.544545 593.239617-97.024212 593.171813-97.503877 593.12764-97.981485 591.951371-110.990117 587.275063-123.264838 579.599013-133.494288 579.437726-133.715593 579.270276-133.928663 579.090495-134.149969L578.932289-134.352746C576.399976-137.616741 573.923135-140.362985 571.363081-142.748965 570.674784-143.400529 570.052236-143.885341 569.593028-144.241489 569.490298-144.319717 569.387568-144.396917 569.285864-144.482351 566.973393-146.482333 564.428748-148.589366 561.544066-150.442154 560.368826-151.204885 559.247003-151.782337 558.345026-152.244505 558.002933-152.41949 557.659811-152.595505 557.303336-152.791077L556.534909-153.219277C554.723765-154.226988 552.669147-155.369541 550.350512-156.353577L550.199498-156.415336C548.08119-157.274824 546.035816-157.837865 544.230837-158.334001L543.041213-158.665445C542.612825-158.785876 542.191628-158.926894 541.770431-159.066882 540.64142-159.438469 539.238115-159.902696 537.610859-160.224874 533.065019-161.133769 528.480143-161.594909 523.983613-161.594909L500.281549-161.594909C495.788104-161.594909 491.202197-161.13377 486.653277-160.224874 485.032182-159.903724 483.639153-159.445673 482.521442-159.077175 482.094081-158.936157 481.667748-158.79308 481.206485-158.662357L480.019943-158.334001C478.220099-157.836836 476.179864-157.273795 474.066691-156.416366L473.919786-156.354607C471.594988-155.37057 469.535233-154.2239 467.71998-153.214131L466.948471-152.783872C466.610487-152.597565 466.267365-152.423608 465.925272-152.247593 465.020212-151.784395 463.894283-151.206943 462.763216-150.472004 459.723411-148.5204 457.154113-146.361902 455.007038-144.511173 454.904306-144.422651 454.79644-144.343393 454.689598-144.262076 454.220117-143.895636 453.58216-143.3995 452.880508-142.734555 450.321483-140.341371 447.851833-137.600274 445.332873-134.351718L445.282536-134.28584C445.132548-134.105708 444.897294-133.819555 444.629167-133.44591 436.9675-123.21646 432.303518-110.957178 431.140607-98.013394 431.096431-97.534758 431.02863-97.058179 430.963908-96.581601 430.785159-95.262003 430.563258-93.620228 430.563258-91.747882L430.563258-32.857009C397.98628-24.775764 366.062669-11.234971 335.447847 7.487453L293.239853-34.789056C282.581526-45.44053 268.890585-52.19806 253.664847-54.330824 253.349463-54.376114 253.039217-54.405965 252.690959-54.435815L252.634457-54.441992C249.345015-54.850635 246.421295-55.050324 243.693791-55.050324 242.906872-55.050324 242.117899-55.032825 241.328927-54.998858 240.505025-54.970036 239.788991-54.890779 239.261982-54.829018 239.097612-54.809461 238.93427-54.789904 238.769901-54.777552L238.662034-54.771376C235.830771-54.558306 232.475582-54.238184 229.031016-53.475453 227.688324-53.191358 226.520275-52.815655 225.577205-52.513033 225.207374-52.396719 224.838571-52.274229 224.463603-52.169238L224.212939-52.098215C223.728049-51.947933 223.24316-51.808974 222.757243-51.667956 220.971781-51.149176 218.947984-50.559371 216.890284-49.681355 214.718554-48.776577 212.826252-47.697843 211.156875-46.743657L210.162441-46.179585C209.758709-45.952104 209.346758-45.74521 208.935834-45.537285 207.912635-45.017475 206.640827-44.370029 205.234442-43.443635 201.361489-40.843556 197.803919-37.93056 194.650082-34.777732L177.881326-17.977061C174.714134-14.79747 171.800688-11.221589 169.233443-7.364701 168.321193-5.999814 167.662688-4.700804 167.135679-3.656037 166.9333-3.258718 166.735029-2.860367 166.48642-2.418787L165.896745-1.369903C164.961893 0.281137 163.903766 2.149366 163.014117 4.288306 162.087485 6.472538 161.485482 8.560013 160.954363 10.403537 160.830059 10.834824 160.531112 11.855917 160.531112 11.855917 160.422218 12.242943 160.296886 12.625853 160.173609 13.006704 159.870553 13.951626 159.492503 15.130205 159.214103 16.415834 158.475468 19.751882 158.162138 23.047786 157.933049 26.102828 157.920721 26.270609 157.898121 26.438389 157.877574 26.60617 157.811825 27.167153 157.721422 27.929884 157.692658 28.818193 157.557054 32.234528 157.737859 35.887609 158.242268 39.944186 158.271033 40.348711 158.310071 40.760443 158.372737 41.179378 160.509539 56.449439 167.257928 70.15081 177.89057 80.799196L220.144795 123.117908C201.491955 153.78361 187.998258 185.747295 179.937996 218.35019L121.010554 218.35019C119.136742 218.35019 117.50435 218.574584 116.193504 218.754716 115.715806 218.819564 115.238107 218.887498 114.787119 218.930729 101.783448 220.104161 89.506084 224.80201 79.279229 232.520932 79.009046 232.721651 78.74811 232.931633 78.468682 233.171466 75.281971 235.629499 72.53803 238.100912 70.082763 240.724667 69.454051 241.395789 68.971216 242.026765 68.650695 242.443643 68.590084 242.523929 68.531527 242.601129 68.469889 242.679357L68.341475 242.827581C66.482047 244.993285 64.328808 247.603658 62.433424 250.539297 61.638287 251.753902 61.052721 252.907778 60.58016 253.836231 60.413736 254.165616 60.248339 254.495001 60.049042 254.856294L59.47683 255.896944C58.513215 257.639592 57.421186 259.613841 56.47709 261.907181 55.593605 264.075972 55.028585 266.153154 54.529313 267.984327L54.228311 269.078502C54.116335 269.455234 53.99203 269.827852 53.867726 270.202526 53.475294 271.392427 52.986295 272.874659 52.666802 274.533933 51.753525 279.079438 51.290209 283.676412 51.290209 288.198245L51.290209 311.943786C51.290209 316.457383 51.753525 321.053328 52.651393 325.526782 52.98835 327.274579 53.480431 328.761957 53.874918 329.955976 54.000249 330.334767 54.126608 330.711502 54.239613 331.091324 54.350562 331.486585 54.458429 331.883905 54.567324 332.280195 55.057351 334.074312 55.613125 336.106202 56.489419 338.259556 57.416051 340.514811 58.504998 342.482883 59.465531 344.220386L60.058289 345.296034C60.233958 345.617183 60.398328 345.946568 60.564752 346.273895 61.039368 347.21161 61.629043 348.373719 62.427262 349.594502 64.290799 352.483822 66.351581 354.970676 68.303466 357.272251L68.450371 357.439002C68.521256 357.524437 68.588031 357.612959 68.655833 357.701481 68.982517 358.122473 69.467407 358.749335 70.10742 359.420455 72.554469 362.049357 75.29841 364.526945 78.491285 366.990124 78.748112 367.209372 79.011103 367.422444 79.285395 367.626248 89.501977 375.332818 101.774205 380.029637 114.781985 381.209244 115.269956 381.252477 115.751764 381.32247 116.232544 381.387318 117.533117 381.564362 119.152154 381.784637 121.010556 381.784637L179.939025 381.784637C188.004424 414.400916 201.498121 446.364602 220.144797 477.016922L177.888517 519.338721C167.254848 529.996372 160.507484 543.69774 158.371711 558.962657 158.312127 559.369241 158.27309 559.761415 158.242269 560.188584 157.737861 564.264719 157.557055 567.910594 157.692659 571.322813 157.721424 572.210093 157.811828 572.97488 157.878602 573.536895 157.898121 573.703646 157.921749 573.870396 157.933049 574.029943 158.163166 577.090131 158.476495 580.381918 159.20383 583.669587 159.495585 585.021093 159.879798 586.221288 160.187991 587.185768 160.309213 587.564561 160.43249 587.943354 160.541384 588.327292 160.541384 588.327292 160.830058 589.30927 160.954362 589.741587 161.489591 591.597464 162.096729 593.701408 163.011034 595.849611 163.915065 598.00914 164.992712 599.911336 165.942973 601.591197L166.518265 602.61126C166.737081 602.998286 166.935352 603.398695 167.136704 603.797044 167.663713 604.840782 168.319136 606.138763 169.228304 607.497476 171.805821 611.363626 174.716186 614.93436 177.890569 618.126304L194.659326 634.926974C197.782344 638.047893 201.335803 640.957801 205.224166 643.577437L205.323815 643.644342C206.642879 644.510006 207.910578 645.155395 208.92864 645.673147 209.340591 645.883129 209.755623 646.091052 210.17682 646.326769L211.228785 646.922747C212.871451 647.857378 214.733961 648.916555 216.817343 649.791481 218.983937 650.713759 221.040608 651.308708 222.853807 651.833667 223.317123 651.966449 223.781466 652.101292 224.244784 652.241278L224.453327 652.302009C224.82624 652.40597 225.194017 652.526403 225.560765 652.644775 226.511026 652.949456 227.689348 653.328249 229.043341 653.612342 232.531054 654.384338 235.944799 654.697252 238.56649 654.879445 238.707232 654.894884 238.849 654.913411 238.990768 654.930908 239.602017 655.007081 240.438246 655.111043 241.353578 655.140892 242.074748 655.166625 242.793864 655.180007 243.51298 655.180007 246.316506 655.180007 249.208379 654.988552 252.343724 654.595349 252.653971 654.577851 253.136806 654.543882 253.715181 654.457418 268.930646 652.319506 282.596932 645.567122 293.249094 634.919768L335.448871 592.647377C366.060611 611.373917 397.985249 624.915741 430.564282 632.996985L430.564282 691.886827C430.564282 693.759173 430.78618 695.397862 430.964932 696.713341 431.029651 697.189921 431.097453 697.666498 431.138546 698.109109 432.305571 711.105389 436.978797 723.381139 444.654844 733.614706 444.849007 733.881302 445.050359 734.138633 445.273284 734.407287L445.334923 734.487576C447.874431 737.759804 450.348189 740.507078 452.895914 742.880708 453.591402 743.540504 454.22525 744.034582 454.692676 744.397933 454.80157 744.483368 454.912521 744.565715 454.973131 744.615123 457.303067 746.630545 459.861067 748.750957 462.718012 750.576984 463.895307 751.341774 465.021236 751.918196 465.925267 752.381392 466.267362 752.556379 466.611511 752.731365 466.942304 752.914584L467.585399 753.273821C469.46332 754.323733 471.591901 755.512605 473.993749 756.50076 476.158288 757.398332 478.237561 757.972699 480.072333 758.480155L481.194153 758.793071C481.62665 758.91762 482.050929 759.058638 482.475208 759.198626 483.606275 759.571242 485.014715 760.033409 486.659436 760.361765 491.197056 761.263456 495.780908 761.721506 500.2836 761.721506L523.985661 761.721506C528.490411 761.721506 533.073234 761.263456 537.608798 760.360736 539.258657 760.031351 540.679423 759.564035 541.821793 759.188332 542.239907 759.050402 542.658019 758.909385 543.054561 758.796158L544.203092 758.476038C546.035811 757.969609 548.115082 757.396274 550.254968 756.508993 552.632158 755.530105 554.71554 754.369022 556.552368 753.344843L557.322848 752.915613C557.660835 752.727248 558.004981 752.553291 558.348103 752.377276 559.249054 751.915109 560.370874 751.339716 561.484477 750.616098 564.439016 748.728313 566.986741 746.610989 569.248875 744.65115 569.354687 744.561599 569.465637 744.478225 569.575559 744.39279 570.036819 744.033553 570.664506 743.545652 571.351774 742.896147 573.901554 740.526637 576.382504 737.775249 578.934337 734.488608L579.02885 734.366117C579.228146 734.126284 579.422309 733.880275 579.610305 733.621915 587.281217 723.390407 591.957526 711.114656 593.130712 698.121464 593.174888 697.63768 593.242689 697.158013 593.307411 696.678348 593.484107 695.372131 593.704979 693.745797 593.704979 691.887861L593.704979 632.996987C626.28093 624.915743 658.204541 611.37392 688.823472 592.647379L731.028387 634.925947C741.670276 645.568157 755.342723 652.323628 770.569491 654.460511 771.136564 654.544914 771.6081 654.577854 771.902936 654.594322 775.049583 654.989584 777.948647 655.181038 780.755254 655.181038 781.474368 655.181038 782.192459 655.167657 782.860209 655.143985 783.825879 655.114133 784.661079 655.009142 785.270275 654.932972 785.413069 654.915474 785.556892 654.895916 785.699689 654.880476 788.324462 654.697255 791.744371 654.384341 795.23722 653.609257 796.592241 653.324135 797.774671 652.944313 798.728015 652.637573 799.091681 652.520228 799.457403 652.400827 799.82518 652.296866 799.82518 652.296866 800.913101 651.977774 801.366141 651.846021 803.192696 651.319004 805.262723 650.719936 807.388224 649.815158 809.543519 648.914499 811.418355 647.846057 813.073352 646.903194L814.095524 646.323684C814.503365 646.095173 814.919424 645.887248 815.332403 645.676237 816.349437 645.159514 817.613028 644.516186 818.927982 643.655668L819.051261 643.573323C822.928322 640.956775 826.478702 638.050983 829.617129 634.919773L846.393074 618.113954C849.528422 614.962156 852.435703 611.39451 855.029657 607.513947 855.939852 606.154208 856.591165 604.863433 857.114065 603.826899 857.315419 603.42855 857.512662 603.028141 857.733534 602.640086L858.382793 601.486209C859.315588 599.832083 860.373716 597.957677 861.222274 595.914464 862.167397 593.700381 862.777619 591.589234 863.314899 589.725124 863.43715 589.297952 863.722743 588.325239 863.722743 588.325239 863.831638 587.941301 863.954915 587.561478 864.077165 587.183715 864.384329 586.218208 864.767515 585.018011 865.041806 583.745763 865.813316 580.29752 866.111236 576.926473 866.327996 574.051563 866.341352 573.888931 866.363954 573.725268 866.383472 573.561604 866.454358 572.985182 866.548868 572.194659 866.575579 571.376342 866.715294 567.923983 866.531404 564.232816 866.015697 560.094922 865.992068 559.769653 865.961248 559.435122 865.906802 559.019276 863.778218 543.730685 857.026746 530.008729 846.378695 519.335639L804.118305 477.015898C822.764981 446.365636 836.259706 414.406069 844.328186 381.784645L903.252547 381.784645C905.109922 381.784645 906.73204 381.564367 908.034668 381.387325 908.516476 381.322478 908.99931 381.252482 909.481117 381.209252 922.472461 380.038907 934.744689 375.343117 944.977708 367.628314 945.256108 367.422449 945.524237 367.203203 945.806746 366.963369 949.011948 364.487839 951.746642 362.015393 954.165955 359.411198 954.799805 358.743163 955.286748 358.116304 955.613432 357.695309 955.686372 357.601641 955.757256 357.507973 955.78602 357.469888L955.957581 357.273285C957.905357 354.978916 959.959974 352.49824 961.822484 349.612007 962.64844 348.359317 963.250442 347.166326 963.737387 346.203907 963.896619 345.885845 964.05688 345.567783 964.196595 345.307362L964.731822 344.341855C965.718039 342.567294 966.83575 340.558047 967.795256 338.215302 968.648949 336.107242 969.200614 334.089759 969.686533 332.309023 969.795425 331.906558 969.906375 331.505119 970.018352 331.105742 970.130329 330.732097 970.254633 330.361539 970.378936 329.988921 970.779586 328.787697 971.275778 327.292087 971.601433 325.606048 972.513684 321.060542 972.975974 316.465627 972.975974 311.944823L972.975979 288.192073 972.977006 288.192073Z"  horiz-adv-x="1024" />

    
    <glyph glyph-name="forbid" unicode="&#58946;" d="M956.569 287.704c0 123.805-49.921 235.901-131.136 317.131v-0.228c-81.248 81.476-193.326 131.413-317.181 131.413-122.311 0-233.866-49.43-314.883-129.465l-1.706-1.721c-81.248-81.229-131.464-193.325-131.464-317.13 0-122.591 49.724-233.932 129.234-314.915l2.229-1.969c81.246-80.984 193.327-131.399 316.589-131.399 123.855 0 235.933 50.415 317.181 131.399v0.245c81.215 81.247 131.136 193.064 131.136 316.64v0zM776.692 19.512v0l-0.195 0.262c-68.522-68.782-163.478-111.357-268.244-111.357-104.698 0-199.162 42.576-268.175 111.357l-1.443 1.216c-67.832 68.535-109.62 162.723-109.62 266.716 0 104.749 42.38 199.69 111.062 268.21l1.74 1.706c68.257 67.289 162.789 109.388 266.436 109.388 104.766 0 199.723-42.344 268.244-111.094v0c68.75-68.52 111.059-163.461 111.059-268.21 0-104.747-42.311-199.441-110.864-267.93l-0-0.263h-0.001zM765.276 322.457v0h-513.884c-19.154 0-34.57-15.664-34.57-34.508 0-18.826 15.416-34.488 34.57-34.488h513.883c19.025 0 34.44 15.663 34.44 34.488 0.001 18.844-15.415 34.508-34.439 34.508v0z"  horiz-adv-x="1024" />

    
    <glyph glyph-name="xiangshang" unicode="&#58902;" d="M897.070634 446.388932 511.721149 831.975824 129.77825 450.032926 175.002244 404.807908 479.687572 709.494259 479.687572-62.579011 543.644209-62.579011 543.644209 709.368392 851.84664 401.165961Z"  horiz-adv-x="1024" />

    
    <glyph glyph-name="quan" unicode="&#58942;" d="M945.386036 351.994188 607.34195 13.986941l-17.309224-17.379832L459.995067-133.399851c-19.153222-19.147082-50.197262-19.110243-69.347414 0l-34.657334 34.694173-34.653241 34.692127-34.69315 34.619472c28.726252 28.720112 28.726252 75.347059 0 104.036471-28.727275 28.727275-75.277474 28.727275-104.003725 0l-34.69008 34.657334-34.657334 34.69008-34.653241 34.689057c-19.186991 19.154245-19.150152 50.161447 0 69.313645l130.002866 129.999796 17.307178 17.383926L564.032562 733.384501c19.150152 19.150152 50.160423 19.150152 69.309552 0l52.002374-52.003398 17.344017-17.307178 34.657334-34.69315c-28.727275-28.727275-28.727275-75.274404 0-104.000656 28.725228-28.727275 75.31329-28.727275 104.039541 0l34.652218-34.69315 52.001351-52.000328 17.346063-17.310248C964.499349 402.227266 964.536188 371.14434 945.386036 351.994188L945.386036 351.994188 945.386036 351.994188zM834.056462 463.324786c-43.973514-17.197684-95.827509-8.137331-131.330094 27.363208-35.57524 35.540448-44.633546 87.430258-27.400047 131.403772l-59.289338 59.290361c-9.576099 9.579169-25.117051 9.579169-34.69315 0L269.297864 369.340251l26.037003-26.003234c4.753257-4.750187 4.790096-12.55699 0-17.344017L277.954011 308.683776c-4.790096-4.786003-12.523221-4.786003-17.310248 0l-26.000164 26.004257L130.639874 230.681238c-9.573029-9.573029-9.573029-25.112957 0-34.69008l59.293431-59.289338c43.973514 17.160845 95.826486 8.173147 131.403772-27.400047 35.499515-35.505655 44.523029-87.35965 27.324322-131.333164l59.33027-59.367109c9.53926-9.537214 25.079188-9.573029 34.656311 0l104.002702 104.042611-26.002211 26.001187c-4.787026 4.787026-4.787026 12.555967 0 17.34197l17.382902 17.310248c4.787026 4.79112 12.523221 4.79112 17.310248 0l26.000164-25.996071 312.043922 312.039829c9.573029 9.613962 9.537214 25.117051 0 34.654264L834.056462 463.324786 834.056462 463.324786 834.056462 463.324786zM503.341295 117.986573l-17.347087-17.34197c-4.787026-4.78805-12.56006-4.751211-17.347087 0l-52.000328 51.999304c-4.790096 4.822842-4.790096 12.55699 0 17.347087l17.346063 17.309224c4.787026 4.787026 12.55699 4.822842 17.344017 0l52.003398-51.999304C508.128321 130.547657 508.128321 122.776669 503.341295 117.986573L503.341295 117.986573 503.341295 117.986573zM399.337569 221.994392l-17.347087-17.314341c-4.786003-4.787026-12.55699-4.787026-17.346063 0l-52.000328 52.003398c-4.787026 4.787026-4.787026 12.522198 0 17.310248l17.347087 17.34197c4.787026 4.787026 12.55699 4.787026 17.347087 0l51.999304-51.999304C404.087757 234.587198 404.124596 226.780395 399.337569 221.994392L399.337569 221.994392 399.337569 221.994392zM399.337569 221.994392"  horiz-adv-x="1024" />

    
    <glyph glyph-name="erweima1" unicode="&#58891;" d="M694.144 546.1759999999999l192.192 0L886.336 738.3679999999999l-192.192 0L694.144 546.1759999999999zM732.544 699.968l115.328 0 0-115.392-115.328 0L732.544 699.968zM153.216 546.1759999999999l195.456 0L348.672 738.3679999999999 153.216 738.3679999999999 153.216 546.1759999999999zM192.256 699.968l117.248 0 0-115.392L192.256 584.576 192.256 699.968zM636.416 488.576l96.64 0 0-115.392-96.64 0 0 115.392ZM732.992 373.24800000000005l115.392 0 0-115.392-115.392 0 0 115.392ZM191.616 161.79200000000003l115.328 0 0-115.392-115.328 0 0 115.392ZM694.144 738.432l192.128 0 0-192.192-192.128 0 0 192.192ZM310.144 257.91999999999996L79.488 257.91999999999996l0-326.72 326.72 0L406.208 257.91999999999996 406.208 373.18399999999997 310.144 373.18399999999997 310.144 257.91999999999996zM348.608 8.063999999999965L156.352 8.063999999999965l0 192.128 192.256 0L348.608 8.063999999999965zM406.272 796.032L79.488 796.032l0-307.52 0-115.328 115.392 0L194.88 488.512l211.392 0L521.6 488.512 521.6 584.64 406.272 584.64 406.272 796.032zM348.608 546.1759999999999L156.352 546.1759999999999 156.352 738.432l192.256 0L348.608 546.1759999999999zM636.992 796.032L521.6 796.032l0-96.064 115.392 0 0-211.456 96 0 0-115.328 115.392 0L848.384 488.512l96.128 0L944.512 796.032 636.992 796.032zM886.72 546.1759999999999l-192.128 0L694.592 738.432l192.128 0L886.72 546.1759999999999zM521.6 46.464000000000055l115.392 0 0-115.264-115.392 0 0 115.264ZM521.6 488.512l115.392 0 0-115.328-115.392 0 0 115.328ZM829.12 257.91999999999996L732.992 257.91999999999996 732.992 373.18399999999997 636.992 373.18399999999997 636.992 257.91999999999996 521.6 257.91999999999996 521.6 161.79200000000003 732.992 161.79200000000003 732.992 46.464000000000055 732.992-68.79999999999995 944.512-68.79999999999995 944.512 46.464000000000055 848.384 46.464000000000055 848.384 161.79200000000003 944.512 161.79200000000003 944.512 257.91999999999996 944.512 373.18399999999997 848.384 373.18399999999997 848.384 257.91999999999996Z"  horiz-adv-x="1024" />

    
    <glyph glyph-name="duihao" unicode="&#58886;" d="M511.999488 831.184809c-246.973928 0-447.184809-200.210881-447.184809-447.184809s200.210881-447.184809 447.184809-447.184809 447.184809 200.210881 447.184809 447.184809S758.972393 831.184809 511.999488 831.184809zM792.446785 531.592476 432.915315 172.06203c-2.921539-2.921539-6.616698-4.613064-10.489912-5.127787-6.634094-1.994424-14.122649-0.375553-19.364023 4.865821L217.504244 357.3572c-7.592932 7.592932-7.592932 19.903306 0 27.496238l23.064298 23.064298c7.591909 7.592932 19.903306 7.592932 27.496238 0l149.792585-149.792585 324.028884 324.028884c7.342222 7.341199 19.549242 7.037277 27.26497-0.678452l22.61916-22.61916C799.485085 551.140695 799.789007 538.933675 792.446785 531.592476z"  horiz-adv-x="1024" />

    
    <glyph glyph-name="dianhua-copy" unicode="&#58890;" d="M523.17 891.71c-280.611 0-508.092-227.483-508.092-508.098 0-280.591 227.481-508.075 508.092-508.075 280.613 0 508.075 227.483 508.075 508.075 0 280.615-227.462 508.098-508.075 508.098zM720.882 150.010c-35.809-35.827-169.332-1.868-301.253 130.039-131.921 131.946-165.823 265.447-130.055 301.254 31.078 31.037 68.919 85.287 125.637 14.668 56.759-70.641 28.835-90.372-3.153-122.404-22.427-22.384 24.313-79.003 73.19-127.879 48.919-48.857 105.493-95.557 127.92-73.236 32.032 32.034 51.781 59.938 122.382 3.175 70.598-56.781 16.39-94.578-14.667-125.617z"  horiz-adv-x="1024" />

    
    <glyph glyph-name="rili" unicode="&#58930;" d="M767.989248 709.80366l-69.815436 0 0 23.272495c0 12.852708-10.419786 23.271471-23.272495 23.271471s-23.272495-10.418762-23.272495-23.271471l0-23.272495L372.369128 709.80366l0 23.272495c0 12.852708-10.418762 23.271471-23.271471 23.271471s-23.271471-10.418762-23.271471-23.271471l0-23.272495L256.010752 709.80366c-64.160121 0-116.358377-52.198256-116.358377-116.358377l0-372.347625c0-64.160121 52.198256-116.359401 116.358377-116.359401l511.978497 0c64.160121 0 116.359401 52.19928 116.359401 116.359401L884.348649 593.445283C884.348649 657.605405 832.14937 709.80366 767.989248 709.80366zM837.804684 221.097658c0-38.496687-31.318749-69.815436-69.815436-69.815436L256.010752 151.282222c-38.496687 0-69.815436 31.318749-69.815436 69.815436L186.195316 593.445283c0 38.496687 31.318749 69.815436 69.815436 69.815436l69.815436 0 0-46.542941c0-12.852708 10.418762-23.271471 23.271471-23.271471s23.271471 10.418762 23.271471 23.271471l0 46.542941 279.260719 0 0-46.542941c0-12.852708 10.419786-23.271471 23.272495-23.271471s23.272495 10.418762 23.272495 23.271471l0 46.542941L767.989248 663.260719c38.496687 0 69.815436-31.318749 69.815436-69.815436L837.804684 221.097658zM360.711378 523.629848 290.896966 523.629848c-12.852708 0-23.271471-10.418762-23.271471-23.271471s10.418762-23.271471 23.271471-23.271471l69.815436 0c12.852708 0 23.271471 10.418762 23.271471 23.271471S373.564086 523.629848 360.711378 523.629848zM546.907718 523.629848l-69.815436 0c-12.852708 0-23.271471-10.418762-23.271471-23.271471s10.418762-23.271471 23.271471-23.271471l69.815436 0c12.852708 0 23.272495 10.418762 23.272495 23.271471S559.760426 523.629848 546.907718 523.629848zM733.105082 523.629848 663.289646 523.629848c-12.852708 0-23.272495-10.418762-23.272495-23.271471s10.419786-23.271471 23.272495-23.271471l69.815436 0c12.852708 0 23.272495 10.418762 23.272495 23.271471S745.95779 523.629848 733.105082 523.629848zM360.711378 430.542941 290.896966 430.542941c-12.852708 0-23.271471-10.418762-23.271471-23.271471s10.418762-23.271471 23.271471-23.271471l69.815436 0c12.852708 0 23.271471 10.418762 23.271471 23.271471S373.564086 430.542941 360.711378 430.542941zM546.907718 430.542941l-69.815436 0c-12.852708 0-23.271471-10.418762-23.271471-23.271471s10.418762-23.271471 23.271471-23.271471l69.815436 0c12.852708 0 23.272495 10.418762 23.272495 23.271471S559.760426 430.542941 546.907718 430.542941zM733.105082 430.542941 663.289646 430.542941c-12.852708 0-23.272495-10.418762-23.272495-23.271471s10.419786-23.271471 23.272495-23.271471l69.815436 0c12.852708 0 23.272495 10.418762 23.272495 23.271471S745.95779 430.542941 733.105082 430.542941zM360.711378 337.456035 290.896966 337.456035c-12.852708 0-23.271471-10.419786-23.271471-23.272495s10.418762-23.272495 23.271471-23.272495l69.815436 0c12.852708 0 23.271471 10.419786 23.271471 23.272495S373.564086 337.456035 360.711378 337.456035zM546.907718 337.456035l-69.815436 0c-12.852708 0-23.271471-10.419786-23.271471-23.272495s10.418762-23.272495 23.271471-23.272495l69.815436 0c12.852708 0 23.272495 10.419786 23.272495 23.272495S559.760426 337.456035 546.907718 337.456035zM733.105082 337.456035 663.289646 337.456035c-12.852708 0-23.272495-10.419786-23.272495-23.272495s10.419786-23.272495 23.272495-23.272495l69.815436 0c12.852708 0 23.272495 10.419786 23.272495 23.272495S745.95779 337.456035 733.105082 337.456035z"  horiz-adv-x="1024" />

    
    <glyph glyph-name="duanxin" unicode="&#58927;" d="M512.692224 496.101376c-18.173952 0-32.92672-14.8224-32.92672-33.129472 0-18.287616 14.751744-33.14688 32.92672-33.14688 18.173952 0 32.9472 14.839808 32.98816 33.14688C545.680384 481.278976 530.881536 496.101376 512.692224 496.101376zM380.143616 496.71168c-18.189312 0-32.92672-14.8224-32.92672-33.053696 0-18.325504 14.738432-33.130496 32.92672-33.130496 18.231296 0 32.96768 14.806016 32.96768 33.130496C413.111296 481.88928 398.373888 496.71168 380.143616 496.71168zM512 896C229.230592 896 0 666.770432 0 384s229.229568-512 512-512c282.769408 0 512 229.229568 512 512S794.769408 896 512 896zM778.24 302.245888c0-27.528192-22.135808-49.742848-49.560576-49.742848L504.229888 252.50304 377.88672 138.24 377.88672 252.50304l-82.601984 0c-27.316224 0-49.523712 22.214656-49.523712 49.742848L245.761024 579.980288C245.76 607.45216 267.953152 629.76 295.284736 629.76l433.394688 0C756.104192 629.76 778.24 607.45216 778.24 579.980288L778.24 302.245888zM643.83488 495.377408c-18.209792 0-32.948224-14.877696-32.948224-33.129472 0-18.248704 14.738432-33.071104 32.948224-33.071104 18.190336 0 32.96768 14.8224 32.96768 33.071104C676.803584 480.499712 662.045696 495.377408 643.83488 495.377408z"  horiz-adv-x="1024" />

    
    <glyph glyph-name="xiaoxi" unicode="&#58925;" d="M649.753632 139.06016 512-4.83584 374.246368 139.06016 162.9696 139.06016C126.627776 139.06016 97.45456 169.5408 97.45456 207.86528L97.45456 662.82176C97.45456 700.87616 126.808896 731.62688 162.9696 731.62688L861.0304 731.62688C897.372224 731.62688 926.54544 701.14624 926.54544 662.82176L926.54544 207.86528C926.54544 169.81088 897.191104 139.06016 861.0304 139.06016L649.753632 139.06016 649.753632 139.06016ZM671.571808 70.68704 861.0304 70.68704C933.392832 70.68704 992 132.10368 992 207.86528L992 662.82176C992 739.0736 933.362912 800 861.0304 800L162.9696 800C90.607168 800 32 738.58336 32 662.82176L32 207.86528C32 131.61344 90.637088 70.68704 162.9696 70.68704L352.428192 70.68704 512-96 671.571808 70.68704 671.571808 70.68704ZM647.965984 428.86848C647.965984 389.144 678.473312 356.94112 716.105984 356.94112 753.738656 356.94112 784.245952 389.144 784.245952 428.86848 784.245952 468.59296 753.738656 500.79616 716.105984 500.79616 678.473312 500.79616 647.965984 468.59296 647.965984 428.86848L647.965984 428.86848 647.965984 428.86848ZM443.547136 428.86848C443.547136 389.144 474.054432 356.94112 511.687136 356.94112 549.319808 356.94112 579.827104 389.144 579.827104 428.86848 579.827104 468.59296 549.319808 500.79616 511.687136 500.79616 474.054432 500.79616 443.547136 468.59296 443.547136 428.86848L443.547136 428.86848 443.547136 428.86848ZM239.1272 428.86848C239.1272 389.144 269.634496 356.94112 307.267168 356.94112 344.89984 356.94112 375.407168 389.144 375.407168 428.86848 375.407168 454.56576 362.419744 478.31104 341.337152 491.15968 320.254592 504.00832 294.279776 504.00832 273.197184 491.15968 252.114592 478.31104 239.1272 454.56576 239.1272 428.86848L239.1272 428.86848 239.1272 428.86848Z"  horiz-adv-x="1024" />

    
    <glyph glyph-name="touxiang" unicode="&#58974;" d="M509.393815 831.517527c-247.292736 0-448.471336-201.197988-448.471336-448.45175 0-247.295733 201.178601-448.441756 448.471336-448.441756 247.248765 0 448.418972 201.146023 448.418972 448.441756C957.812587 630.319539 756.64258 831.517527 509.393815 831.517527zM793.185604 98.812301c-56.677373 17.739972-164.32219 46.189484-180.790024 56.57844-23.652963 14.923882-16.098085 96.520359-16.098085 96.520359l16.098085 14.140413c0 0 4.108215 36.922966 11.10647 50.287705 15.670375 30.037634 32.144206 80.495824 32.144206 80.495824s16.143055 11.727049 16.143055 32.19697c0 20.423153-16.143055 32.177184-16.143055 32.177184s6.087872 57.014144 6.087872 96.639279c0 83.136833-52.246377 128.77589-146.059572 128.77589-93.851569 0-162.294964-38.787502-162.294964-128.77589 0-39.624934 12.531903-96.639279 12.531903-96.639279s-16.061111-11.754031-16.061111-32.177184c0-20.470121 16.061111-32.19697 16.061111-32.19697s18.767276-58.361831 32.203166-80.495824c7.837086-12.940227 11.034119-50.287705 11.034119-50.287705l16.145054-14.140413c0 0 7.617835-81.587484-16.145054-96.520359-17.850297-11.273357-131.768261-40.964026-182.02119-58.040449-73.830743 72.925357-119.632489 174.061586-119.632489 285.715485 0 221.606151 180.299757 401.87293 401.907906 401.87293 221.596158 0 401.852544-180.273774 401.852544-401.87293C911.246359 272.170165 866.083979 171.610744 793.185604 98.812301z"  horiz-adv-x="1024" />

    
    <glyph glyph-name="xin-xian" unicode="&#58926;" d="M511.987-15.927c-11.778 0-23.397 3.967-32.717 11.169-6.322 4.887-63.714 49.503-131.443 110.731-90.284 81.62-155.042 152.78-192.476 211.504-16.984 26.669-33.263 53.062-45.803 82.796-14.956 35.462-22.225 70.536-22.225 107.227 0 67.594 24.281 131.373 68.372 179.587 45.312 49.55 105.938 76.838 170.712 76.838 72.511 0 140.648-35.542 185.59-94.887 44.955 59.343 113.097 94.887 185.596 94.887 64.765 0 125.388-27.288 170.701-76.837 44.098-48.219 68.383-111.998 68.383-179.588 0-83.24-39.333-144.955-68.054-190.018-37.422-58.726-102.177-129.888-192.467-211.51-67.731-61.229-125.131-105.847-131.453-110.732-9.325-7.202-20.942-11.167-32.716-11.167zM326.407 713.927c-50.567 0-98.090-21.515-133.814-60.581-35.642-38.975-55.27-90.771-55.27-145.845 0-29.887 5.984-58.605 18.295-87.797 11.030-26.153 26.114-50.57 41.901-75.358 84.647-132.791 303.070-302.387 312.327-309.542 0.781-0.604 1.595-0.73 2.141-0.73 0.545 0 1.36 0.127 2.146 0.734 9.253 7.15 227.699 176.748 312.323 309.545 28.228 44.291 60.22 94.487 60.22 163.148 0 55.070-19.632 106.866-55.279 145.845-35.727 39.065-83.246 60.58-133.805 60.58-67.126 0-129.784-39.45-163.522-102.955-4.338-8.167-12.831-13.271-22.078-13.271-0.001 0-0.002 0-0.003 0-9.248 0.001-17.74 5.107-22.078 13.276-33.717 63.502-96.369 102.951-163.504 102.951z"  horiz-adv-x="1024" />

    
    <glyph glyph-name="home" unicode="&#58963;" d="M929.984 424.064 560.896 804.416c-22.016 22.08-57.408 22.272-79.68 0.64L323.008 649.856 323.008 668.928c0 20.864-16.832 37.952-37.696 37.952L209.856 706.88c-20.864 0-37.696-16.896-37.696-37.952L172.16 501.76 94.656 425.664c-22.464-22.144-23.04-58.24-1.216-80.704C109.504 328.32 132.992 323.712 153.28 331.136l0-308.224c0-41.856 33.728-76.032 75.456-76.032L360.96-53.12l18.88 0 37.696 0c20.864 0 37.76 16.768 37.76 37.888l0 19.136 0 19.008 0 133.12c0 10.368 8.448 19.008 18.88 19.008l75.392 0c10.496 0 18.88-8.64 18.88-19.008l0-133.12 0-19.008 0-19.136c0-20.864 16.896-37.888 37.76-37.888l37.504 0 18.88 0 132.224 0c41.728 0 75.52 34.112 75.52 76.032L870.336 330.112c6.272-2.176 12.864-3.648 19.264-3.648 14.656 0 29.12 5.632 40.128 16.704C952.128 365.44 952.128 401.344 929.984 424.064zM209.856 649.664c0 10.624 8.448 19.072 18.88 19.072l37.696 0c10.432 0 18.88-8.64 18.88-19.072l0-36.928L209.856 538.688 209.856 649.664zM833.024 22.656c0-20.864-16.768-37.888-37.632-37.888l-132.352 0-18.88 0L625.344-15.232c-10.496 0-18.88 8.64-18.88 19.136l0 19.008 0 152c0 20.864-16.896 37.888-37.76 37.888L455.296 212.8c-20.864 0-37.76-16.896-37.76-37.888l0-152 0-19.008c0-10.752-8.384-19.136-18.816-19.136L379.84-15.232 360.96-15.232 228.736-15.232c-20.864 0-37.76 17.024-37.76 37.888L190.976 360.832l329.216 322.944 312.832-323.136L833.024 22.656zM903.488 370.048c-4.992-4.8-10.496-5.632-13.504-5.632s-8.64 0.832-13.376 5.632l-5.888 6.08L870.72 383.744 863.36 383.744 520.512 737.216 159.872 383.744 153.024 383.744l0-6.848L147.008 370.88C143.424 367.424 138.752 365.44 133.76 365.44c-2.816 0-8.64 0.832-13.44 5.824C113.088 378.88 113.344 390.912 120.704 398.208l386.56 379.136C510.912 780.928 515.52 782.72 520.512 782.72c3.008 0 8.64-0.832 13.44-5.632l369.28-380.352c4.864-4.8 5.504-10.432 5.888-13.248C909.12 380.48 908.352 374.848 903.488 370.048zM436.416 478.656c0-41.984 33.728-76.096 75.456-76.096 41.6 0 75.456 34.112 75.456 76.096 0 41.92-33.728 76.032-75.456 76.032C470.144 554.752 436.416 520.64 436.416 478.656zM549.632 478.656c0-20.864-16.832-37.952-37.696-37.952S474.24 457.792 474.24 478.656c0 20.8 16.832 37.888 37.696 37.888S549.632 499.52 549.632 478.656z"  horiz-adv-x="1024" />

    
    <glyph glyph-name="xiangshang1" unicode="&#59038;" d="M756.366222 378.06933300000003L482.744889 620.856889l-241.777778-241.735111-34.759111 34.773333L480.725333 688.355556l308.280889-273.493333L756.366222 378.06933300000003zM756.366222 378.06933300000003M756.366222 79.65866700000004l-273.621333 242.773333-241.777778-241.763556-34.759111 34.759111L480.725333 389.973333l308.280889-273.536L756.366222 79.65866700000004zM756.366222 79.65866700000004"  horiz-adv-x="1024" />

    
    <glyph glyph-name="iconfontchangemeter-copy" unicode="&#58955;" d="M934.532 665.373h-141.055v141.056c0 38.956-31.574 70.53-70.53 70.53h-634.756c-38.956 0-70.53-31.574-70.53-70.53v-634.756c0-38.956 31.574-70.53 70.53-70.53h141.055v-141.055c0-38.956 31.578-70.53 70.531-70.53h634.755c38.956 0 70.53 31.574 70.53 70.53v634.755c0 38.956-31.574 70.53-70.53 70.53zM229.246 594.842v-423.167h-141.055v634.756h634.756v-141.056h-423.167c-38.956 0-70.531-31.574-70.531-70.53zM816.464 293.581l-270.663-273.61c-2.769-2.799-6.415-4.201-10.064-4.201-3.597 0-7.193 1.364-9.955 4.094-3.942 3.901-5.109 9.545-3.492 14.478-0.006 1.115 0.116 2.252 0.386 3.381l47.537 199.066h-142.731c-7.814 0-14.153 6.337-14.153 14.156 0 0.378 0.018 0.753 0.048 1.126-0.315 3.963 1.03 8.034 4.042 11.082l270.665 273.61c5.497 5.558 14.461 5.607 20.018 0.108 2.666-2.636 4.06-6.074 4.187-9.547 0.389-1.918 0.389-3.947-0.079-5.983l-46.453-202.118h138.276c3.338 0 6.401-1.157 8.821-3.088 1.258-0.644 2.441-1.489 3.501-2.537 5.556-5.497 5.607-14.458 0.108-20.018z"  horiz-adv-x="1024" />

    
    <glyph glyph-name="dianhua1" unicode="&#58993;" d="M256.283967 825.264982l139.866515-180.601264 2.338255-3.108804c6.217608-8.820899 10.894118-18.679431 13.739932-28.563546 3.370771-11.664667 3.90289-23.594371 2.095731-36.056194-2.095731-12.195763-5.978155-23.354917-11.95631-33.478486l-1.541099-2.072195c-5.713119-9.326413-13.232372-17.642822-22.053272-24.391527l-2.869351-1.301645-67.966974-49.553603c-3.90596-9.857509-9.618055-31.406291 9.591449-58.109466 30.104645-43.335994 63.317071-83.563184 100.143814-120.416534 37.384445-36.826743 77.080539-70.039169 119.885438-100.143814 26.729781-18.679431 48.278563-13.497409 58.640562-9.086959l50.855248 70.308299 0 0c7.2798 9.881045 15.835663 17.904789 25.959232 24.149003 10.361999 5.951549 21.522176 10.126638 33.478486 11.664667l1.807159 0.26606c11.664667 1.541099 23.089881 0.77055 33.982976-2.335185l2.076288-0.531096c10.385535-3.111874 20.509103-8.027837 29.596062-15.307637l0 0.26606 180.598194-140.637064 2.842745-2.072195c9.090029-7.782244 16.341177-17.138332 21.548782-27.234271l0 0.239454c5.951549-11.398608 9.063423-23.860431 10.096962-37.09178 0.531096-13.232372-1.807159-25.693172-6.748704-37.888935l0.531096 0c-5.177929-11.664667-12.461823-22.319331-22.584368-31.406291-11.398608-10.894118-25.666566-22.053272-43.070958-32.68133l-1.807159-1.036609c-16.872273-9.591449-36.32123-19.210527-59.171658-26.463722-99.107205-32.94739-204.963115-26.995841-306.701241 6.748704-107.423615 35.790134-210.43678 102.747105-294.744931 187.346899-85.101213 84.839247-152.058185 187.320293-187.879018 295.276027-33.982976 101.71152-39.696094 207.567429-6.748704 306.701241 8.316409 23.860431 17.403369 43.841507 28.031427 60.712757l0 0.50449 0 0c10.388605 16.606213 21.282722 31.406291 31.91078 43.097564 9.618055 9.591449 20.246113 17.111726 31.671327 22.053272l3.374864 0.77055c10.628058 4.148483 22.557762 5.713119 34.488489 5.447059 12.995989-0.76748 25.959232-3.879354 37.118386-9.591449l2.072195-1.567705L256.283967 825.264982 256.283967 825.264982zM338.545506 599.520565L338.545506 599.520565 198.678992 780.096247c-1.036609 1.829671-2.842745 3.13234-4.649903 4.167926l-0.531096 0.239454c-2.069125 0.797156-4.676509 1.833765-6.748704 1.833765-2.842745 0-4.41045-0.531096-6.214539-0.531096l-1.039679-0.50449c-2.072195-0.797156-4.172019-2.338255-5.713119-4.14132-8.05035-8.319479-15.832594-18.176988-23.354917-31.143301l0 0c-7.785314-12.992919-15.062044-28.297486-21.282722-46.205345-27.76639-83.271542-22.053272-173.84949 6.751774-261.026992 32.17377-96.264461 92.886527-189.154058 170.20652-266.207991 77.080539-77.346599 169.970136-138.056286 266.234597-170.236196 87.708598-29.04143 177.728844-34.245965 261.030062-6.748704 17.373693 5.716188 32.17377 12.726859 44.63764 19.741623l1.538029 1.541099c12.726859 7.519254 23.354917 15.570627 31.143301 22.850427 1.829671 2.072195 3.105734 3.879354 4.14132 5.954619l0 0 0 0.26606c1.036609 1.564635 1.036609 4.14132 1.036609 6.745634 0 2.842745-0.50449 5.180999-1.541099 6.748704l0 0 0 0c-0.531096 2.072195-1.807159 3.108804-3.370771 4.41045l-1.305739 0.77055L729.049385 208.99008100000003l0.531096 0-0.531096 0c-1.036609 1.301645-3.374864 2.338255-4.915963 2.869351l-0.531096 0c-1.807159 0.50449-4.145413 0.50449-6.217608 0.50449l-0.26606 0c-2.604314-0.50449-4.676509-1.036609-6.217608-2.072195l0 0c-1.567705-0.77055-3.374864-2.577708-4.942569-4.676509l0 0 0 0-55.000662-75.486228c-2.869351-4.41045-7.280824-8.316409-11.929704-11.691273-0.26606 0-64.884776-45.409213-143.240355 9.591449-46.975894 32.711006-90.551342 69.03019-129.476887 108.460224-40.22719 39.191604-76.017324 82.792635-108.72219 129.742946-55.000662 78.621639-9.090029 142.975319-9.090029 142.975319 2.338255 4.145413 5.712095 7.785314 9.857509 10.894118l74.476225 54.496172 2.87242 1.807159c1.538029 1.301645 2.573615 2.338255 3.610224 3.90596l0.797156 1.039679c1.27504 1.564635 1.807159 3.63683 2.311649 5.709025 0 2.842745 0 4.676509-0.50449 6.748704-0.531096 1.541099-1.036609 3.108804-2.338255 4.145413L338.545506 599.520565 338.545506 599.520565zM256.283967 824.733886L256.283967 824.733886l0 0.531096L256.283967 824.733886 256.283967 824.733886zM256.283967 825.264982L256.283967 825.264982l0-0.531096L256.283967 825.264982 256.283967 825.264982z"  horiz-adv-x="1024" />

    
    <glyph glyph-name="fuwu" unicode="&#59137;" d="M196 350l0-0.89C84 327.738 0 229.996 0 112.588 0-20.468 107.594-128 240.74-128c128.018 0 232.33 100 240.212 226L482 98 482 350 196 350zM828 350l0-0.89c112-21.372 196-119.114 196-236.522C1024-20.468 916.412-128 783.258-128c-128.016 0-232.328 100-240.21 226L542 98 542 350 828 350zM196 418l0 0.89C84 440.262 0 538.002 0 655.412 0 788.468 107.594 895.998 240.74 895.998 368.758 895.998 473.07 796 480.954 670L482 670l0-252L196 418zM828 418l0 0.89c112 21.372 196 119.112 196 236.522C1024 788.468 916.412 895.998 783.258 895.998 655.242 895.998 550.93 796 543.046 670L542 670l0-252L828 418z"  horiz-adv-x="1024" />

    
    <glyph glyph-name="wangzhi" unicode="&#58911;" d="M607.3344-55.724218C687.113309 61.942691 736.420461 201.904873 743.681552 352.975903L960.769552 352.975903C947.007612 151.139297 800.218764-14.097067 607.3344-55.724218M511.993794-65.933188C508.239127-65.933188 504.531006-65.747006 500.80737-65.653915 408.585309 50.570085 350.667248 195.155782 342.459733 352.975903L681.54337 352.975903C673.335855 195.155782 615.402279 50.570085 523.195733-65.653915 519.472097-65.747006 515.763976-65.933188 511.993794-65.933188M63.218036 352.975903 280.321552 352.975903C287.582642 201.904873 336.889794 61.942691 416.668703-55.724218 223.784339-14.097067 76.995491 151.139297 63.218036 352.975903M404.458279 820.912873C329.209794 703.044267 283.983127 564.199176 279.700945 415.036509L63.388703 415.036509C76.886885 612.559903 217.624824 775.0656 404.458279 820.912873M511.993794 833.9456C519.875491 833.9456 527.695127 833.728388 535.468218 833.324994 623.454642 716.030448 677.307733 571.739539 682.179491 415.036509L341.808097 415.036509C346.69537 571.739539 400.548461 716.030448 488.534885 833.324994 496.307976 833.728388 504.127612 833.9456 511.993794 833.9456M960.598885 415.036509 744.302158 415.036509C740.019976 564.199176 694.793309 703.044267 619.544824 820.912873 806.362764 775.0656 947.116218 612.559903 960.598885 415.036509M511.993794 896.006206C229.230158 896.006206-0.006206 666.769842-0.006206 384.006206-0.006206 101.227055 229.230158-127.993794 511.993794-127.993794 794.772945-127.993794 1023.993794 101.227055 1023.993794 384.006206 1023.993794 666.769842 794.772945 896.006206 511.993794 896.006206"  horiz-adv-x="1024" />

    
    <glyph glyph-name="xiangyou" unicode="&#58897;" d="M761.055557 363.87195299999996c0.512619 0.992555 1.343475 1.823411 1.792447 2.848649 8.800538 18.304636 5.919204 40.703346-9.664077 55.424808L399.935923 756.256202c-19.264507 18.208305-49.631179 17.344765-67.872168-1.888778-18.208305-19.264507-17.375729-49.631179 1.888778-67.872168l316.960409-299.839269L335.199677 82.36828400000002c-19.071845-18.399247-19.648112-48.767639-1.247144-67.872168 9.407768-9.791372 21.984142-14.688778 34.560516-14.688778 12.000108 0 24.000215 4.479398 33.311652 13.439914l350.048434 337.375729c0.672598 0.672598 0.927187 1.599785 1.599785 2.303346 0.512619 0.479935 1.056202 0.832576 1.567101 1.343475C757.759656 357.120172 759.199462 360.608735 761.055557 363.87195299999996z"  horiz-adv-x="1024" />

    
    <glyph glyph-name="xuanze" unicode="&#59026;" d="M512.54272-61.2608c-242.0736 0-438.30272 196.89984-438.30272 439.79776s196.22912 439.79776 438.30272 439.79776c242.06336 0 438.30272-196.89984 438.30272-439.79776S754.6112-61.2608 512.54272-61.2608zM510.17728 749.93152c-204.30848 0-369.90976-166.17984-369.90976-371.17952 0-204.99456 165.60128-371.17952 369.90976-371.17952 204.27264 0 369.8944 166.19008 369.8944 371.17952C880.07168 583.75168 714.44992 749.93152 510.17728 749.93152z"  horiz-adv-x="1024" />

    
    <glyph glyph-name="jinakangbaoicons18" unicode="&#58991;" d="M512.183-116.32399999999996c-272.613 0-494.382 221.828-494.382 494.445s221.766 494.382 494.382 494.382 494.382-221.766 494.382-494.382-221.766-494.445-494.382-494.445zM512.183 810.116c-238.21 0-432.059-193.785-432.059-432.059s193.851-432.127 432.059-432.127 432.059 193.851 432.059 432.127-193.785 432.059-432.059 432.059zM737.623 190.11199999999997l-187.989 187.932 187.989 187.932-37.442 37.442-187.932-187.932-187.932 187.932-37.442-37.442 187.932-187.932-187.989-187.989 37.442-37.442 187.989 187.989 187.932-187.932z"  horiz-adv-x="1024" />

    
    <glyph glyph-name="shouye" unicode="&#58996;" d="M954.882408 418.197554 527.65381 789.19285c-10.837253 9.392286-26.972719 9.271872-37.689558-0.240828L68.635936 415.066792c-8.91063-7.826905-11.920978-20.349953-7.706491-31.548448 4.214487-11.078081 14.810913-18.42333 26.731891-18.42333l59.24365 0 0-294.0508c-1.083725-10.355597-3.010348-47.924741 20.952023-75.619944 10.957667-12.643462 31.548448-27.695202 67.311383-27.695202l533.433678 0c0.963311 0 2.408278-0.120414 4.214487-0.120414 12.88429 0 43.951082 2.528692 68.515522 25.286924 13.606773 12.643462 29.983067 36.244591 29.983067 77.185325L871.315146 366.178739l65.866416 1.926623c11.800564 0.361242 22.156162 7.826905 26.129821 18.904986C967.044214 398.088429 963.793039 410.491063 954.882408 418.197554L954.882408 418.197554zM437.343368 220.839135c0 0.120414 0.120414 0.240828 0.120414 0.481656 0.481656 1.324553 1.444967 3.492004 3.853246 5.900282 4.936971 5.057385 21.554092 16.737535 68.15428 16.737535 40.21825 0 57.557855-9.151458 64.301035-14.690499 6.020696-4.816557 6.984008-9.271872 7.104421-10.355597l0-194.107244L437.343368 24.805268 437.343368 220.839135 437.343368 220.839135z"  horiz-adv-x="1024" />

    
    <glyph glyph-name="pinglun-copy" unicode="&#59012;" d="M255.218 537.667c-35.291 0-63.903-29.674-63.903-66.29 0-36.619 28.613-66.291 63.903-66.291 35.291 0 63.903 29.674 63.903 66.291 0 36.615-28.613 66.29-63.903 66.29zM510.835 537.667c-35.291 0-63.903-29.674-63.903-66.29 0-36.619 28.614-66.291 63.903-66.291s63.903 29.674 63.903 66.291c0 36.615-28.614 66.29-63.903 66.29zM766.451 537.667c-35.291 0-63.904-29.674-63.904-66.29 0-36.619 28.614-66.291 63.904-66.291s63.903 29.674 63.903 66.291c0 36.615-28.614 66.29-63.903 66.29zM894.257 869.106h-766.846c-70.582 0-127.807-59.363-127.807-132.581v-497.158c0-73.219 58.506-140.71 130.709-140.71h194.769c33.949-36.165 174.458-181.635 174.458-181.635 6.24-6.49 16.35-6.49 22.59 0 0 0 102.876 116.638 169.902 181.635h199.324c72.205 0 130.71 67.492 130.71 140.71v497.158c0 73.218-57.227 132.581-127.809 132.581zM958.163 239.365c0-36.604-30.705-75.013-66.806-75.013h-196.017c-23.744 0-45.089-24.417-45.089-24.417l-137.637-142.755-137.606 142.755c0 0-26.212 24.417-48.676 24.417h-196.017c-36.102 0-66.805 38.411-66.805 75.013v497.158c0 36.618 28.613 66.292 63.903 66.292h766.846c35.291 0 63.905-29.676 63.905-66.292v-497.158z"  horiz-adv-x="1024" />

    
    <glyph glyph-name="wodeshoucang" unicode="&#58892;" d="M905.862 480.323c-6.834 19.456-24.487 33.77-45.702 36.842l-206.514 30.23-89.778 183.496c-9.416 19.256-29.651 31.544-51.89 31.544-22.194 0-42.407-12.288-51.868-31.544l-89.778-183.474-206.514-30.253c-21.215-3.072-38.867-17.386-45.679-36.842-1.874-5.211-2.957-11.225-2.957-17.491 0-15.030 6.232-28.604 16.254-38.28l151.367-148.807-35.105-206.314c-3.562-20.814 5.565-41.65 23.507-53.849 9.884-6.611 21.415-10.017 33.013-10.017 9.505 0 19.078 2.293 27.759 6.812l180.024 95.455 180.068-95.455c8.022-4.305 17.552-6.835 27.672-6.835 12.324 0 23.773 3.751 33.265 10.174 17.733 12.065 26.837 32.879 23.298 53.715l-35.105 206.314 151.352 148.792c14.982 14.692 20.146 36.218 13.312 55.786zM844.8 449.647l-151.352-148.792c-6.527-6.401-10.572-15.311-10.572-25.166 0-2.064 0.177-4.087 0.518-6.053l35.075-183.887c0.148-0.884 0.233-1.902 0.233-2.939 0-6.509-3.329-12.24-8.378-15.583-3.671-2.441-8.097-3.868-12.857-3.868-3.838 0-7.459 0.928-10.65 2.573l-157.721 117.721c-4.96 2.657-10.852 4.219-17.107 4.219s-12.147-1.561-17.305-4.315l-157.431-117.574c-3.102-1.647-6.782-2.614-10.687-2.614-4.683 0-9.042 1.391-12.685 3.782-5.155 3.333-8.576 9.147-8.576 15.76 0 1.026 0.082 2.033 0.241 3.015l35.091 183.945c0.311 1.758 0.49 3.782 0.49 5.848 0 9.858-4.056 18.769-10.589 25.155l-151.381 148.843c-3.481 3.312-5.646 7.98-5.646 13.153 0 2.097 0.356 4.111 1.010 5.985 2.388 6.818 17.993 3.056 25.828 4.191l197.543 16.985c11.865 1.714 22.038 9.127 27.225 19.723l67.473 161.169c3.428 6.99 11.064 11.509 19.389 11.509 8.392 0 16.006-4.497 19.389-11.464l67.539-161.213c5.482-10.924 16.057-18.585 28.523-19.894l196.223-16.814c7.769-1.135 23.396 2.627 25.845-4.252 0.623-1.762 0.984-3.795 0.984-5.911 0-5.205-2.178-9.901-5.673-13.226z"  horiz-adv-x="1024" />

    
    <glyph glyph-name="bianji1" unicode="&#58945;" d="M959.716928 341.049792M939.445232 771.458519 897.003608 813.900144c-23.438828 23.438828-61.439304 23.438828-84.878133 0l-41.11542-41.114396 127.32385-127.32385 41.111327 41.11235C962.889177 710.014098 962.889177 748.019691 939.445232 771.458519zM889.98475 5.246747 131.8704 5.246747 131.8704 763.360074l483.21542 0L615.08582 829.939445 134.01525 829.939445c-37.957497 0-68.725244-30.767747-68.725244-68.725244l0-755.968477c0-37.957497 30.767747-68.725244 68.725244-68.725244l755.968477 0c37.957497 0 68.725244 30.767747 68.725244 68.725244L958.708971 486.31834l-68.725244 0L889.983727 5.246747zM854.561983 601.690998 727.238133 729.013825 382.800429 384.580215l0.214894-0.214894L362.102015 262.938784c-2.697435-15.658631 10.937097-29.262464 26.589588-26.529213l121.128755 21.147646 0.305969-0.305969L854.561983 601.690998z"  horiz-adv-x="1024" />

    
    <glyph glyph-name="qiyerenzheng" unicode="&#58898;" d="M512.192 895.296C230.848 895.296 0.704 665.152 0.704 383.808s230.144-511.488 511.488-511.488c281.28 0 511.488 230.208 511.488 511.488C1023.68 665.152 793.472 895.296 512.192 895.296z m0-959.04c-249.344 0-447.552 198.208-447.552 447.552 0 249.344 198.208 447.552 447.552 447.552 249.408 0 447.552-198.208 447.552-447.552 0-249.344-198.144-447.552-447.552-447.552zM576.896 297.15200000000004h173.888V369.91999999999996H576.896v51.776c0 24.064 2.24 41.792 6.72 53.184 1.728 4.544 2.624 8.896 2.624 12.992s-6.208 6.08-18.816 6.08h-79.232V179.20000000000005H401.6V350.27200000000005c0 23.552 2.24 41.088 6.72 52.352 2.304 5.44 3.392 10.112 3.392 14.016 0 3.84-5.824 5.76-17.6 5.76h-77.824v-243.2h-100.16v-75.008H802.88V179.20000000000005H576.896V297.15200000000004z m-14.208 382.784c2.624 2.752 6.528 5.696 11.52 8.896 5.056 3.136 7.424 6.784 7.424 10.88 0 3.2-1.728 5.696-5.376 7.488-3.648 1.856-36.608 10.688-98.88 26.624-47.36-123.584-145.728-211.456-295.04-263.744 17.6-14.528 38.72-37.44 63.552-68.8 123.648 61.376 213.632 132.416 270.08 213.312 58.688-87.232 146.176-157.888 262.656-211.968 23.36 36.8 44.48 65.856 63.488 87.232-61.376 14.976-116.224 39.168-164.992 72.512-48.896 33.472-86.976 72.64-114.432 117.568z"  horiz-adv-x="1024" />

    
    <glyph glyph-name="huodongdidian" unicode="&#58914;" d="M510.192941-26.804706l14.155294 14.878118a2259.064471 2259.064471 0 0 1 155.888941 184.801882c40.598588 53.910588 75.294118 106.014118 102.4 154.684235C822.211765 399.058824 843.294118 459.896471 843.294118 504.470588a331.294118 331.294118 0 0 1-662.588236 0c0-44.574118 21.082353-105.411765 60.717177-176.911059a1358.426353 1358.426353 0 0 1 102.4-154.684235A2259.064471 2259.064471 0 0 1 513.807059-26.804706a8.131765 8.131765 0 0 1-3.734588 0zM120.470588 504.470588a391.529412 391.529412 0 0 0 783.058824 0c0-216.244706-350.388706-573.44-350.388706-573.44-22.287059-24.094118-59.572706-24.274824-82.281412 0 0 0-350.388706 357.195294-350.388706 573.44zM602.352941 504.470588a90.352941 90.352941 0 1 1-180.705882 0 90.352941 90.352941 0 0 1 180.705882 0z m-240.941176 0a150.588235 150.588235 0 1 0 301.17647 0 150.588235 150.588235 0 0 0-301.17647 0z"  horiz-adv-x="1024" />

    
    <glyph glyph-name="kefu" unicode="&#59226;" d="M138.755 591.603C59.237 569.75 0.482 495.352 0.482 407.365c0-50.876 19.876-98.8 56.096-135.019 21.159-21.26 46.158-36.807 73.418-46.059 1.772-44.874 11.617-88.472 29.522-129.705 18.995-43.802 46.256-83.264 80.896-117.015 34.643-33.758 74.892-60.232 119.772-78.732 44.677-18.504 92.012-28.146 140.822-28.835H506.627c67.311 1.279 121.634 56.388 121.634 123.997 0 69.486-57.372 125.78-127.246 124.008-65.841-1.773-119.177-55.409-120.652-121.244-0.292-14.173 1.772-27.856 5.907-40.652a313.419 313.419 0 0 0-101.863 66.53c-59.051 57.57-91.624 134.138-91.624 215.523V511.398c0 81.384 32.48 157.853 91.624 215.522 59.346 57.769 138.275 89.655 222.318 89.655 83.946 0 162.968-31.886 222.417-89.753 59.043-57.571 91.615-134.133 91.615-215.53l-1.767-260.1c-0.197-20.08 18.309-35.14 37.987-31.005 35.624 7.383 68.5 25.295 95.166 51.96 36.215 36.318 56.096 84.243 56.096 135.025 0 86.308-56.294 159.434-133.252 183.05-5.022 22.045-12.004 43.7-21.16 64.761-18.99 43.79-46.25 83.25-80.896 117.01-34.643 33.757-74.892 60.223-119.766 78.73-46.456 19.096-95.663 28.836-146.447 28.836-50.775 0-100.09-9.74-146.532-28.835-44.78-18.507-85.129-44.973-119.772-78.73-34.64-33.76-61.905-73.121-80.896-117.01-8.959-20.571-15.846-41.737-20.763-63.38z m768.81-274.873c-7.389-7.377-15.356-13.676-23.918-18.99V511.292c0 2.27-0.1 4.433-0.1 6.597 36.909-22.239 61.706-63.474 61.706-110.716 0-33.951-13.384-66.134-37.688-90.443zM502.293-65.115c-32.668 1.079-58.948 27.954-59.047 61.018 0 33.659 27.36 61.013 61.018 61.013 33.659 0 61.012-27.354 61.012-61.013 0-33.46-26.963-60.622-60.224-61.018h-2.759zM101.161 316.73c-24.311 24.31-37.696 56.492-37.696 90.443 0 49.207 26.97 92.016 66.332 113.376-0.092-3.056-0.092-6.2-0.092-9.256v-216.21c-10.237 5.702-19.884 12.987-28.544 21.647z m0 0"  horiz-adv-x="1024" />

    
    <glyph glyph-name="jinru-copy" unicode="&#58885;" d="M716.136 390.901c2.919 3.039 4.553 7.163 4.553 11.463 0 4.285-1.633 8.408-4.553 11.449M716.136 413.813l-294.827 307.818c-12.936 13.538-34.522 12.697-47.431-0.802-12.883-13.474-12.991-35.273-0.054-48.813l257.999-269.664-257.999-269.638c-12.937-13.55-12.83-35.352 0.054-48.825 12.909-13.498 34.496-14.343 47.431-0.804l294.827 307.819z"  horiz-adv-x="1024" />

    
    <glyph glyph-name="fenxiang2" unicode="&#58906;" d="M786.651429 243.712c-72.118857 0-134.92419-38.521905-167.740953-95.427048l-237.129143 122.831238a180.419048 180.419048 0 0 1 12.141715 164.08381l261.705142 161.109333a193.877333 193.877333 0 0 1 151.698286-71.972571C913.334857 524.336762 999.350857 607.524571 999.350857 710.168381S913.334857 896 807.326476 896c-106.057143 0-191.975619-83.18781-191.975619-185.831619 0-23.893333 4.632381-46.713905 13.116953-67.681524L366.128762 481.03619a193.877333 193.877333 0 0 1-150.040381 69.87581C110.08 550.912 24.112762 467.72419 24.112762 365.080381s85.967238-185.831619 191.975619-185.831619a194.755048 194.755048 0 0 1 130.730667 49.737143l252.391619-130.730667a181.052952 181.052952 0 0 1-4.534857-40.374857c0-102.692571 85.918476-185.880381 191.975619-185.880381s192.024381 83.18781 192.024381 185.880381c0 102.595048-85.967238 185.831619-192.024381 185.831619z m20.870095 594.066286c72.801524 0 131.803429-57.148952 131.803428-127.609905s-59.001905-127.609905-131.803428-127.609905c-72.850286 0-131.85219 57.148952-131.852191 127.609905s59.001905 127.609905 131.852191 127.609905zM216.283429 237.470476c-72.801524 0-131.85219 57.148952-131.852191 127.609905s59.050667 127.609905 131.852191 127.609905 131.803429-57.148952 131.803428-127.609905-59.001905-127.609905-131.803428-127.609905z m570.514285-307.2c-72.801524 0-131.803429 57.10019-131.803428 127.609905 0 70.460952 59.001905 127.561143 131.803428 127.561143 72.850286 0 131.85219-57.10019 131.852191-127.561143 0-70.509714-59.001905-127.609905-131.852191-127.609905z"  horiz-adv-x="1024" />

    
    <glyph glyph-name="hetong" unicode="&#58958;" d="M281.6 435.2h460.8c12.8 0 25.6 12.8 25.6 25.6s-12.8 25.6-25.6 25.6h-460.8c-12.8 0-25.6-12.8-25.6-25.6s12.8-25.6 25.6-25.6zM284.16 281.6h145.92c15.36 0 28.16 12.8 28.16 25.6 0 15.36-12.8 25.6-28.16 25.6h-145.92c-15.36 0-28.16-10.24-28.16-25.6 0-12.8 12.8-25.6 28.16-25.6zM284.16 128h145.92c15.36 0 28.16 12.8 28.16 25.6 0 15.36-12.8 25.6-28.16 25.6h-145.92c-15.36 0-28.16-10.24-28.16-25.6 0-12.8 12.8-25.6 28.16-25.6zM281.6 588.8h460.8c12.8 0 25.6 12.8 25.6 25.6s-12.8 25.6-25.6 25.6h-460.8c-12.8 0-25.6-12.8-25.6-25.6s12.8-25.6 25.6-25.6zM896 844.8h-768c-12.8 0-25.6-12.8-25.6-25.6v-870.4c0-12.8 12.8-25.6 25.6-25.6h384c15.36 0 25.6 10.24 25.6 25.6s-10.24 25.6-25.6 25.6h-358.4v819.2h716.8v-384c0-15.36 10.24-25.6 25.6-25.6s25.6 10.24 25.6 25.6v409.6c0 12.8-12.8 25.6-25.6 25.6zM768 281.6c84.48 0 153.6-69.12 153.6-153.6s-69.12-153.6-153.6-153.6-153.6 69.12-153.6 153.6 69.12 153.6 153.6 153.6m0 51.2c-112.64 0-204.8-92.16-204.8-204.8s92.16-204.8 204.8-204.8 204.8 92.16 204.8 204.8-92.16 204.8-204.8 204.8zM778.24 220.15999999999997l20.48-43.52c2.56-2.56 5.12-5.12 7.68-5.12l46.08-5.12c7.68 0 12.8-12.8 5.12-17.92l-35.84-30.72c-2.56-2.56-2.56-5.12-2.56-10.24l10.24-46.08c2.56-7.68-7.68-15.36-15.36-10.24l-40.96 23.04c-2.56 2.56-7.68 2.56-10.24 0l-40.96-23.04c-7.68-5.12-15.36 2.56-15.36 10.24l10.24 46.08c0 2.56 0 7.68-2.56 10.24l-35.84 30.72c-7.68 5.12-2.56 15.36 5.12 17.92l46.08 5.12c2.56 0 7.68 2.56 7.68 5.12l20.48 43.52c5.12 7.68 15.36 7.68 20.48 0z"  horiz-adv-x="1024" />

    
    <glyph glyph-name="ren1" unicode="&#59014;" d="M652.8 361.6C723.2 406.4 768 486.4 768 576c0 140.8-115.2 256-256 256S256 716.8 256 576c0-89.6 44.8-169.6 115.2-214.4C192 304 64 134.39999999999998 64-64h64c0 211.2 172.8 384 384 384s384-172.8 384-384h64c0 198.4-128 368-307.2 425.6zM512 384c-105.6 0-192 86.4-192 192s86.4 192 192 192 192-86.4 192-192-86.4-192-192-192z"  horiz-adv-x="1024" />

    
    <glyph glyph-name="lajitong" unicode="&#59010;" d="M905.095 687.7280000000001c-0.723 13.831-8.416 22.5-21.935 24.964-9.591 1.748-19.427 2.978-29.157 3.003-86.191 0.226-172.383 0.131-258.575 0.132-33.351 0-33.746 0.003-33.526 32.945 0.107 16.082-2.276 30.68-17.72 38.771-18.485 9.684-38.335 9.957-56.659 0.784-17.966-8.993-20.791-26.286-18.357-44.809 0.489-3.722-0.236-7.611 0.315-11.317 1.911-12.864-3.273-16.675-16.211-16.658-65.739 0.088-131.48-0.861-197.221-1.272-33.198-0.208-66.403 0.284-99.596-0.188-17.428-0.248-31.405-5.801-32.05-26.883-0.632-20.665 11.01-30.367 29.789-32.983 8.168-1.138 16.754-1.418 24.885-0.245 18.279 2.637 24.062-3.035 23.817-22.671-1.187-95.25-0.536-190.522-0.536-285.787 0-94.508-0.052-189.017 0.02-283.525 0.042-54.383 27.569-82.889 81.862-83.012 154.237-0.351 308.475-0.311 462.712-0.022 54.345 0.102 81.543 28.003 81.768 82.957 0.262 64.265 0.061 128.531 0.061 192.797 0 125.507 0.497 251.018-0.52 376.517-0.158 19.465 5.267 25.341 23.708 22.741 12.025-1.695 24.391-0.459 35.599 4.637 12.134 5.515 18.229 15.704 17.527 29.124zM703.894 43.986999999999966c-127.824-0.459-255.648-1.108-383.472-1.53-42.18-0.139-55.197 13.105-55.226 55.644-0.06 88.514-0.018 177.028-0.018 265.542 0 90.027 0.354 180.056-0.345 270.078-0.118 15.18 2.786 20.515 19.406 20.441 154.329-0.685 308.663-0.647 462.992-0.03 15.437 0.062 18.313-4.852 18.296-19.052-0.212-176.262 0.311-352.525 0.354-528.787 0.012-48.329-14.318-62.135-61.987-62.306zM457.826 344.04600000000005c-0.005-62.494 0.248-124.989-0.122-187.48-0.16-27.053-21.176-42.105-41.952-30.851-13.621 7.378-15.183 20.088-15.14 33.959 0.217 70.131 0.1 140.263 0.099 210.395 0 52.078-0.013 104.156 0.005 156.234 0.01 28.205 9.473 41.657 29.029 41.383 19.282-0.27 28.061-13.458 28.076-42.408 0.031-60.412 0.009-120.822 0.005-181.232zM640.505 347.573c0-67.266 0.079-134.531-0.04-201.797-0.046-25.885-12.42-41.664-31.659-41.105-18.649 0.542-30.391 15.588-30.412 40.16-0.114 135.287-0.119 270.574 0.002 405.861 0.023 25.653 10.741 38.957 30.533 39.21 20.326 0.26 31.51-13.901 31.546-40.533 0.091-67.264 0.03-134.53 0.03-201.796z"  horiz-adv-x="1024" />

    
    <glyph glyph-name="jinru" unicode="&#58960;" d="M554.976209 184.256418c-12.512209-12.513882-12.512209-32.768 0-45.248418 12.513882-12.512209 32.768-12.512209 45.248418 0l220.767373 220.799163c6.657673 6.657673 9.505464 15.520627 9.055373 24.226301 0.450092 8.735791-2.399373 17.566954-9.055373 24.222954L600.224627 629.023791c-12.480418 12.512209-32.768 12.512209-45.248418 0-12.512209-12.512209-12.512209-32.768 0-45.246745l167.775373-167.775373H32C14.336 416 0 401.664 0 384s14.336-32 32-32h690.751582L554.976209 184.256418zM896 832H256c-70.687791 0-128-57.312209-128-128v-128h64v128c0 35.328 28.640209 64 64 64h640c35.359791 0 64-28.672 64-64v-640c0-35.328-28.640209-64-64-64H256c-35.359791 0-64 28.640209-64 64v128H128v-128c0-70.687791 57.312209-128 128-128h640c70.687791 0 128 57.312209 128 128v640c0 70.687791-57.312209 128-128 128z"  horiz-adv-x="1024" />

    
    <glyph glyph-name="bianji2" unicode="&#58901;" d="M513-60.89999999999998C266.8-60.89999999999998 67.1 138.79999999999995 67.1 385 67.1 631.3 266.8 830.9 513 830.9S958.9 631.3 958.9 385c0-246.2-199.6-445.9-445.9-445.9zM282.5 138.29999999999995l136 53.2-84.1 84.1-51.9-137.3z m72.9 158.3l84.1-84.1 273.3 273.2-84.1 84.1-273.3-273.2z m346.8 346.8l-52.6-52.6 84.1-84.1 52.6 52.6-84.1 84.1z"  horiz-adv-x="1024" />

    
    <glyph glyph-name="jiazaixiao" unicode="&#59581;" d="M721.024 170.66666699999996A298.666667 298.666667 0 1 0 810.666667 384a42.666667 42.666667 0 0 1 85.333333 0 384 384 0 1 1-128-286.208V85.33333300000004c0-23.722667 19.114667-42.666667 42.666667-42.666666 23.722667 0 42.666667 19.114667 42.666666 42.666666v128a42.538667 42.538667 0 0 1-42.666666 42.666667h-128c-23.722667 0-42.666667-19.114667-42.666667-42.666667 0-23.722667 19.114667-42.666667 42.666667-42.666666h38.357333z"  horiz-adv-x="1024" />

    
    <glyph glyph-name="jiazai" unicode="&#58887;" d="M526.463984 896c27.926134 0 50.342179-22.541274 50.34218-50.342179V690.498716c0-27.926134-22.541274-50.342179-50.34218-50.342179-27.926134 0-50.342179 22.541274-50.342179 50.342179V845.532591c-0.250459 27.926134 22.416045 50.467409 50.342179 50.467409zM792.075333 819.860585c24.044026-13.900452 32.434389-44.83209 18.533937-68.876116l-77.642167-134.371041c-13.900452-24.044026-44.83209-32.434389-68.876116-18.533937-24.044026 13.900452-32.434389 44.83209-18.533937 68.876116l77.642167 134.245812c14.025682 24.169255 44.83209 32.559618 68.876116 18.659166zM960.133056 635.147365c13.900452-24.044026 5.760548-54.975663-18.533937-68.876116l-134.245811-77.642167c-24.044026-13.900452-54.975663-5.760548-68.876116 18.533936-13.900452 24.044026-5.760548 54.975663 18.533937 68.876116l134.245811 77.642167c24.044026 13.900452 54.850434 5.510089 68.876116-18.533936zM1037.649994 393.8305c0-27.926134-22.541274-50.342179-50.342179-50.342179H832.273939c-27.926134 0-50.342179 22.541274-50.342179 50.342179 0 27.926134 22.541274 50.342179 50.342179 50.342179h155.033876c27.926134 0.125229 50.342179-22.416045 50.342179-50.342179zM960.133056 132.977865c-13.900452-24.044026-44.83209-32.434389-68.876116-18.533937l-134.245811 77.642167c-24.044026 13.900452-32.434389 44.83209-18.533937 68.876116 13.900452 24.044026 44.83209 32.434389 68.876116 18.533937l134.245811-77.642167c24.169255-13.900452 32.434389-44.83209 18.533937-68.876116zM792.075333-71.396356c-24.044026-13.900452-54.975663-5.760548-68.876116 18.533937l-77.642167 134.245811c-13.900452 24.044026-5.760548 54.975663 18.533937 68.876116 24.044026 13.900452 54.975663 5.760548 68.876116-18.533936l77.642167-134.245812c13.900452-24.169255 5.760548-54.975663-18.533937-68.876116zM526.463984-128c-27.926134 0-50.342179 22.541274-50.342179 50.342179V77.501284c0 27.926134 22.541274 50.342179 50.342179 50.342179 27.926134 0 50.342179-22.541274 50.34218-50.342179v-155.159105c0-27.675676-22.541274-50.342179-50.34218-50.342179zM260.602177-71.396356c-24.044026 13.900452-32.434389 44.83209-18.533937 68.876116l77.642167 134.245812c13.900452 24.044026 44.83209 32.434389 68.876116 18.533936 24.044026-13.900452 32.434389-44.83209 18.533937-68.876116l-77.642167-134.245811c-13.900452-24.169255-44.706861-32.434389-68.876116-18.533937zM72.507766 132.977865c-13.900452 24.044026-5.760548 54.975663 18.533936 68.876116l134.245812 77.642167c24.044026 13.900452 54.975663 5.760548 68.876116-18.533937 13.900452-24.044026 5.760548-54.975663-18.533937-68.876116l-134.245811-77.642167c-24.044026-13.900452-54.975663-5.635319-68.876116 18.533937zM15.027516 393.8305c0 27.926134 22.541274 50.342179 50.342179 50.342179H220.403571c27.926134 0 50.342179-22.541274 50.342179-50.342179 0-27.926134-22.541274-50.342179-50.342179-50.342179H65.369695c-27.800905 0-50.342179 22.541274-50.342179 50.342179zM72.507766 635.147365c13.900452 24.044026 44.83209 32.434389 68.876116 18.533936l134.245811-77.642167c24.044026-13.900452 32.434389-44.83209 18.533937-68.876116-13.900452-24.044026-44.83209-32.434389-68.876116-18.533936l-134.245812 77.642167c-24.169255 13.900452-32.434389 44.706861-18.533936 68.876116zM260.602177 819.860585c24.044026 13.900452 54.975663 5.760548 68.876116-18.533937l77.642167-134.245812c13.900452-24.044026 5.760548-54.975663-18.533937-68.876115-24.044026-13.900452-54.975663-5.760548-68.876116 18.533936l-77.642167 134.245812c-13.900452 24.044026-5.510089 54.850434 18.533937 68.876116z"  horiz-adv-x="1425" />

    
    <glyph glyph-name="gerenzhongxin-xuanzhong" unicode="&#59373;" d="M1022.706512-62.663397c-13.916439 122.310495-27.675202 129.814743-84.660774 181.118109-57.610439 51.828955-206.066086 69.109167-234.885906 77.43684-28.802299 8.321832-37.112452 24.31727-41.918675 33.269809-4.800383 8.964219-0.671586 19.534406-0.99278 29.77172-0.303674 10.237314 1.313974 41.912835 1.313974 41.912835 45.761318 41.597482 67.830233 96.317179 67.830233 96.317179 62.404982 34.881617 60.162467 60.471981 62.720335 87.352959 2.546189 26.880978-1.915481 64.957011-10.243153 83.516157-8.315992 18.559146-24.31727 27.517525-24.31727 27.517525s0.957741 6.079317 1.915481 26.238591c0.963581 20.153434 0 49.59228-2.873222 102.71185-2.873222 53.113729-16.649504 87.674153-46.719058 107.833426-30.075394 20.153434-87.995346 14.39531-87.995346 14.39531-25.905718 28.159912-43.501283 39.67616-54.386824 44.476544C556.596307 896 537.727647 896 537.727647 896L468.61264 880.962303c-24.31143 1.600128-47.670959-15.808561-47.670959-15.808561-7.364092 1.47165-61.126048 3.007539-95.680632-25.146533-50.561701-39.67616-56.962212-114.233937-58.241146-131.51415s0-111.676069 0-111.676069c-25.923237-14.716503-31.044814-42.876416-32.639102-56.635178-1.605968-13.758763-1.605968-53.756116 5.752284-92.153343s49.59228-55.040891 49.592281-55.04089c21.122854-49.276927 75.527198-92.153343 75.527197-92.153343s0.963581-37.433645 1.594288-55.04089c0.648227-17.607245-0.315354-23.038336-22.074755-37.439486s-67.205365-22.395949-95.680631-26.886818c-28.475266-4.496709-63.99343-10.873861-94.395858-22.401788-30.396587-11.516248-60.156627-26.232751-94.71705-57.587079-34.554584-31.360168-39.991514-51.192408-46.397865-70.715135-5.542048-16.918139-9.886921-77.571156-10.94394-93.426437H0.797189v-65.278204h1022.347314v65.278204h-0.437991zM544.297514 833.688456h-3.860162l2.552029 0.543109c0.338713-0.122638 0.794224-0.309514 1.308133-0.543109z"  horiz-adv-x="1024" />

    
    <glyph glyph-name="shoucang1" unicode="&#58880;" d="M752-43.2c-9.6 0-20.8 3.2-30.4 8l-208 104-209.6-104c-20.8-11.2-48-9.6-67.2 4.8s-30.4 40-25.6 64l43.2 224-164.8 153.6c-17.6 17.6-24 44.8-17.6 67.2 8 24 27.2 41.6 52.8 44.8l228.8 41.6 102.4 208c11.2 22.4 33.6 36.8 57.6 36.8s48-14.4 57.6-36.8l102.4-208 228.8-40c24-3.2 44.8-20.8 51.2-44.8 8-24 1.6-49.6-16-67.2l-164.8-155.2 41.6-224c4.8-25.6-6.4-49.6-25.6-64-9.6-8-22.4-12.8-36.8-12.8z"  horiz-adv-x="1024" />

    
    <glyph glyph-name="tubiao-1" unicode="&#58965;" d="M207.826 511.727l48.265 48.287 303.969-303.969-48.287-48.242zM464.1 256.273l303.946 303.946 48.287-48.265-303.969-303.969z"  horiz-adv-x="1024" />

    
    <glyph glyph-name="erweima" unicode="&#59090;" d="M192 800h179.2c51.2 0 96-44.8 96-96v-179.2c0-51.2-44.8-96-96-96H192c-51.2 0-96 44.8-96 96V704c0 57.6 38.4 96 96 96z m0-64c-19.2 0-32-12.8-32-32v-179.2c0-12.8 12.8-32 32-32h179.2c12.8 0 32 19.2 32 32V704c0 19.2-12.8 32-32 32H192zM192 339.20000000000005h179.2c51.2 0 96-44.8 96-96V64c0-51.2-44.8-96-96-96H192c-51.2 0-96 44.8-96 96v179.2c0 51.2 38.4 96 96 96z m0-64c-19.2 0-32-12.8-32-32V64c0-19.2 12.8-32 32-32h179.2c19.2 0 32 12.8 32 32v179.2c0 19.2-12.8 32-32 32H192zM588.8 339.20000000000005H896c19.2 0 32-12.8 32-32s-12.8-32-32-32h-307.2c-19.2 0-32 12.8-32 32s12.8 32 32 32zM556.8 0v166.4c0 19.2 12.8 32 32 32s32-12.8 32-32V0c0-19.2-12.8-32-32-32s-32 12.8-32 32zM697.6 64v96c0 19.2 12.8 32 32 32s32-12.8 32-32v-96c0-19.2-12.8-32-32-32s-32 19.2-32 32zM838.4 32v134.4c0 19.2 12.8 32 32 32s32-12.8 32-32V32c0-19.2-12.8-32-32-32s-32 12.8-32 32zM652.8 736c-19.2 0-32-12.8-32-32v-179.2c0-19.2 12.8-32 32-32H832c19.2 0 32 12.8 32 32V704c0 19.2-12.8 32-32 32h-179.2z m0 64H832c51.2 0 96-44.8 96-96v-179.2c0-51.2-44.8-96-96-96h-179.2c-51.2 0-96 44.8-96 96V704c0 57.6 44.8 96 96 96z"  horiz-adv-x="1024" />

    
    <glyph glyph-name="baoming" unicode="&#58884;" d="M814.08-61.44H204.8c-51.2 0-92.16 40.96-92.16 92.16v629.76c0 51.2 40.96 92.16 92.16 92.16h71.68c0 40.96 30.72 71.68 71.68 71.68h327.68c40.96 0 71.68-30.72 71.68-71.68h71.68c51.2 0 92.16-40.96 92.16-92.16v-629.76c0-51.2-46.08-92.16-97.28-92.16z m-163.84 844.8h-281.6c-25.6 0-46.08-20.48-46.08-46.08s20.48-46.08 46.08-46.08h281.6c25.6 0 46.08 20.48 46.08 46.08s-20.48 46.08-46.08 46.08z m215.04-117.76c0 25.6-20.48 46.08-46.08 46.08h-71.68c0-40.96-30.72-71.68-71.68-71.68h-327.68c-40.96 0-71.68 30.72-71.68 71.68h-71.68c-25.6 0-46.08-20.48-46.08-46.08v-629.76c0-25.6 20.48-46.08 46.08-46.08h609.28c25.6 0 46.08 20.48 46.08 46.08l5.12 629.76z m-168.96-491.52h-373.76c-15.36 0-25.6 10.24-25.6 25.6s10.24 25.6 25.6 25.6h373.76c15.36 0 25.6-10.24 25.6-25.6s-10.24-25.6-25.6-25.6z m0 138.24h-373.76c-15.36 0-25.6 10.24-25.6 25.6s10.24 25.6 25.6 25.6h373.76c15.36 0 25.6-10.24 25.6-25.6s-10.24-25.6-25.6-25.6z m0 143.36h-373.76c-15.36 0-25.6 10.24-25.6 25.6s10.24 25.6 25.6 25.6h373.76c15.36 0 25.6-10.24 25.6-25.6s-10.24-25.6-25.6-25.6z"  horiz-adv-x="1024" />

    
    <glyph glyph-name="xiaoxi1" unicode="&#58994;" d="M512.2 427.6c-12 0-21.8-9.8-21.8-21.8 0-12.1 9.8-21.8 21.8-21.8s21.8 9.8 21.8 21.8c0 12.1-9.8 21.8-21.8 21.8z m87.1 0c-12.1 0-21.8-9.8-21.8-21.8 0-12.1 9.8-21.8 21.8-21.8s21.8 9.8 21.8 21.8c0.1 12.1-9.7 21.8-21.8 21.8z m-174.3 0c-12 0-21.8-9.8-21.8-21.8 0-12.1 9.8-21.8 21.8-21.8 12.1 0 21.8 9.8 21.8 21.8 0 12.1-9.7 21.8-21.8 21.8zM512.2 742.5c-197.9 0-358.4-160.5-358.4-358.4s160.5-358.4 358.4-358.4 358.4 160.5 358.4 358.4-160.5 358.4-358.4 358.4z m0-489.2c-11.1 0-22 1-32.6 2.7l-76.4-46.3v77.2c-39.8 28-65.4 70.9-65.4 119 0 84.2 78.1 152.6 174.3 152.6 96.3 0 174.3-68.3 174.3-152.6s-77.9-152.6-174.2-152.6z"  horiz-adv-x="1024" />

    
    <glyph glyph-name="anquan" unicode="&#58881;" d="M519.217-42.667h-14.166c-5.208 0.715-10.432 1.32-15.618 2.16-28.075 4.538-54.258 14.665-79.459 27.451-49.337 25.033-92.85 58.09-132.01 96.974-37.186 36.924-69.035 77.874-92.367 125.032-18.931 38.265-30.764 78.324-30.712 121.49 0.141 117.082 0.048 234.166 0.048 351.247v4.266c0.673 0.342 0.9 0.543 1.144 0.568 1.242 0.122 2.487 0.264 3.733 0.284 32.517 0.511 64.865 2.64 96.916 8.66 30.718 5.77 60.963 13.228 90.133 24.498 39.92 15.42 78.074 34.54 114.917 56.283 17.45 10.298 34.299 21.49 49.941 34.42h0.833c1.264-1.056 2.5-2.148 3.796-3.163 27.967-21.914 58.579-39.582 90.124-55.673 41.322-21.077 83.755-39.37 129.112-50.118 23.504-5.57 47.191-10.13 71.285-11.996 16.595-1.285 33.254-1.748 49.884-2.576 4.1-0.203 8.2-0.394 12.584-0.605v-5.045c0-116.916 0.027-233.833-0.054-350.75-0.006-8.87-0.3-17.794-1.278-26.601-3.346-30.183-12.336-58.794-25.047-86.279-18.204-39.362-42.566-74.673-71.306-106.984-48.587-54.627-104.655-99.552-171.26-130.556-19.531-9.091-39.778-16.2-61.055-20.013-6.67-1.194-13.41-1.993-20.118-2.974M214.161 626.9v-3.017c0.001-99.583-0.122-199.167 0.17-298.75 0.034-11.43 1.558-23.019 3.812-34.248 6.596-32.852 21.284-62.357 39.644-90.06 36.855-55.61 84.149-100.892 138.844-138.647 25.302-17.464 51.9-32.609 81.283-42.284 15.733-5.178 31.705-7.839 48.32-4.658 22.335 4.274 42.848 13.25 62.632 24.01 42.63 23.19 80.467 52.798 114.759 86.99 32.036 31.944 59.961 67.039 80.283 107.709 14.678 29.372 24.09 60.12 24.048 93.392-0.126 98.469-0.045 196.94-0.043 295.412v4.337c-14.036 2.11-27.501 3.911-40.886 6.192-37.546 6.398-74.24 16.051-109.638 30.196-49.703 19.86-97.208 44.1-142.49 72.653-2.086 1.315-3.554 1.26-5.591-0.024-33.612-21.192-68.837-39.348-104.928-55.909-45.579-20.915-92.92-36.264-142.215-45.453-15.793-2.945-31.713-5.2-48.004-7.84M670.467 507.546l54.144-46.865-232.268-267.657-152.057 129.14 46.837 55.159c32.587-27.374 65.041-54.64 97.929-82.268 61.81 70.834 123.475 141.506 185.415 212.49"  horiz-adv-x="1024" />

    
    <glyph glyph-name="weizhi-tianchong" unicode="&#58964;" d="M810.666667 576c0 164.266667-134.4 298.666667-298.666667 298.666667S213.333333 740.266667 213.333333 576c0-162.133333 221.866667-424.533333 283.733334-494.933333 8.533333-8.533333 23.466667-10.666667 32 0C588.8 151.46666700000003 810.666667 409.6 810.666667 576z m-448 0c0 83.2 66.133333 149.333333 149.333333 149.333333s149.333333-66.133333 149.333333-149.333333-66.133333-149.333333-149.333333-149.333333-149.333333 66.133333-149.333333 149.333333zM708.266667 170.66666699999996c-10.666667-12.8-2.133333-32 12.8-34.133334 51.2-6.4 98.133333-17.066667 138.666666-27.733333 98.133333-27.733333 119.466667-59.733333 119.466667-64 0-6.4-21.333333-36.266667-119.466667-64-93.866667-27.733333-217.6-42.666667-349.866666-42.666667-132.266667 0-258.133333 14.933333-349.866667 42.666667C64 6.399999999999977 42.666667 36.266666999999984 42.666667 42.66666699999996c0 6.4 21.333333 36.266667 119.466666 64 40.533333 12.8 87.466667 21.333333 140.8 27.733333 17.066667 2.133333 23.466667 21.333333 14.933334 34.133333-4.266667 6.4-10.666667 8.533333-19.2 8.533334C121.6 153.60000000000002 0 102.39999999999998 0 42.66666699999996c0-83.2 228.266667-149.333333 512-149.333334s512 66.133333 512 149.333334c0 59.733333-121.6 110.933333-296.533333 134.4-6.4 2.133333-14.933333-2.133333-19.2-6.4z"  horiz-adv-x="1024" />

    
    <glyph glyph-name="ren" unicode="&#58893;" d="M632.454996 356.032318c82.503771 51.72989 137.801942 142.823025 137.801942 247.388971 0 161.581991-131.001817 292.578711-292.583808 292.578711-161.587089 0-292.568516-130.991622-292.568516-292.578711 0-104.565947 55.293074-195.659082 137.796845-247.388971C136.759494 291.584052 2.245469 116.6312 2.245469-91.445503a36.559595 36.559595 0 0 1 36.564692-36.56979H916.546294a36.554497 36.554497 0 0 1 36.564692 36.56979c0 208.076702-134.514026 383.029555-320.65599 447.477821zM258.239097 603.426387c0 121.189042 98.250088 219.428936 219.434033 219.428935 121.19414 0 219.434033-98.239893 219.434033-219.428935 0-121.183945-98.239893-219.434033-219.434033-219.434033-121.178847 0-219.434033 98.250088-219.434033 219.434033z m219.434033-292.573613c209.651844 0 379.869077-160.975383 398.617848-365.718291H79.060379c18.753869 204.742907 188.971102 365.718291 398.612751 365.718291z"  horiz-adv-x="1024" />

    
    <glyph glyph-name="fenxiang1" unicode="&#59120;" d="M284.444444 611.555556C159.288889 611.555556 56.888889 509.155556 56.888889 384s102.4-227.555556 227.555555-227.555556 227.555556 102.4 227.555556 227.555556-102.4 227.555556-227.555556 227.555556m0-398.222223c-96.711111 0-170.666667 73.955556-170.666666 170.666667s73.955556 170.666667 170.666666 170.666667 170.666667-73.955556 170.666667-170.666667-73.955556-170.666667-170.666667-170.666667M824.888889 839.111111C745.244444 839.111111 682.666667 776.533333 682.666667 696.888889S745.244444 554.666667 824.888889 554.666667 967.111111 617.244444 967.111111 696.888889 904.533333 839.111111 824.888889 839.111111m0-227.555555c-45.511111 0-85.333333 39.822222-85.333333 85.333333S779.377778 782.222222 824.888889 782.222222s85.333333-39.822222 85.333333-85.333333S870.4 611.555556 824.888889 611.555556M824.888889 213.333333c-79.644444 0-142.222222-62.577778-142.222222-142.222222s62.577778-142.222222 142.222222-142.222222 142.222222 62.577778 142.222222 142.222222-62.577778 142.222222-142.222222 142.222222m0-227.555555c-45.511111 0-85.333333 39.822222-85.333333 85.333333s39.822222 85.333333 85.333333 85.333333 85.333333-39.822222 85.333333-85.333333-39.822222-85.333333-85.333333-85.333333M452.380444 317.781333l295.594667-170.666666-28.444444-49.265778-295.594667 170.666667zM749.511111 617.699556l-295.594667-170.666667-28.444444 49.265778 295.594667 170.666666z"  horiz-adv-x="1024" />

    
    <glyph glyph-name="guanliyuan" unicode="&#58894;" d="M522.342 798.486c140.641 0 255.094-114.452 255.094-255.092 0-140.483-114.453-254.934-255.094-254.934-140.639 0-255.091 114.297-255.091 254.934 0 140.64 114.452 255.092 255.091 255.092zM711.641-30.486H333.046c-91.659 0-155.998 5.333-192.046 10.175 9.859 133.529 81.635 248.797 184.617 314.422 54.479-42.848 122.22-69.514 196.743-69.514s142.257 26.511 196.574 69.514c103.288-65.643 175.063-180.732 184.763-314.422-36.057-4.842-100.394-10.175-192.056-10.175z"  horiz-adv-x="1024" />

    
    <glyph glyph-name="toparrow" unicode="&#58899;" d="M238.862 389.931l273.621-242.788 241.777 241.735 34.759-34.773-274.532-274.446-308.281 273.493 32.654 36.779zM238.862 389.931zM238.862 688.356l273.621-242.773 241.778 241.778 34.759-34.759-274.532-274.56-308.281 273.536 32.654 36.779zM238.862 688.356z"  horiz-adv-x="1024" />

    
    <glyph glyph-name="wodexiaoxi" unicode="&#58910;" d="M718.4 503.3H288.6c-13.9 0-25.1 11.2-25.1 25.1 0 13.9 11.2 25.1 25.1 25.1h429.8c13.9 0 25.1-11.2 25.1-25.1-0.1-13.9-11.3-25.1-25.1-25.1zM718.4 334.2H288.6c-13.9 0-25.1 11.2-25.1 25.1 0 13.9 11.2 25.1 25.1 25.1h429.8c13.9 0 25.1-11.2 25.1-25.1-0.1-13.9-11.3-25.1-25.1-25.1zM512-1.6c-7.3 0-14.2 3.2-19 8.7L364.3 155.7H202c-76 0-137.8 61.8-137.8 137.8V631.8c0 76 61.8 137.8 137.8 137.8h620c76 0 137.8-61.8 137.8-137.8v-338.2c0-76-61.8-137.8-137.8-137.8H659.7L531 7.1c-4.8-5.5-11.7-8.7-19-8.7z m-310 721c-48.3 0-87.6-39.3-87.6-87.6v-338.2c0-48.3 39.3-87.7 87.6-87.7h173.8c7.3 0 14.2-3.2 19-8.7L512 61.8l117.3 135.4c4.8 5.5 11.7 8.7 19 8.7H822c48.3 0 87.6 39.3 87.6 87.7V631.8c0 48.3-39.3 87.6-87.6 87.6H202z"  horiz-adv-x="1024" />

    
    <glyph glyph-name="shui" unicode="&#58977;" d="M512-128a444.573082 444.573082 0 0 0-444.573082 444.573082C67.426918 640.370478 458.65123 865.620839 475.693198 875.253256L512 896l36.306802-20.746744C565.34877 865.620839 956.573082 640.370478 956.573082 316.573082a444.573082 444.573082 0 0 0-444.573082-444.573082zM512 723.357453c-86.691751-57.794501-296.382055-217.099855-296.382055-406.784371a296.382055 296.382055 0 0 1 592.76411 0c0 189.684515-209.690304 348.98987-296.382055 406.784371zM363.808973 304.7178m-74.095514 0a74.095514 74.095514 0 1 1 148.191027 0 74.095514 74.095514 0 1 1-148.191027 0ZM474.952243 193.57453m-37.047757 0a37.047757 37.047757 0 1 1 74.095514 0 37.047757 37.047757 0 1 1-74.095514 0Z"  horiz-adv-x="1024" />

    
    <glyph glyph-name="phone" unicode="&#58903;" d="M729 815.8H295c-42.1 0-76.8-34.6-76.8-76.8v-710.1c0-42.1 34.6-76.8 76.8-76.8h434c42.1 0 76.8 34.6 76.8 76.8V739.1c-0.1 42.1-34.3 76.7-76.8 76.7z m26.7-783.9c0-14.6-12.1-26.7-26.7-26.7H295c-14.6 0-26.7 12.1-26.7 26.7V174.6h487.3v-142.7z m0 197.8H268.3V735.6c0 14.3 12.1 26.1 26.7 26.1h434c14.6 0 26.7-11.8 26.7-26.1v-505.9zM578.9 67.2c-5.7-5.7-13.5-8.9-21.6-8.9h-90.7c-16.9 0-30.5 13.7-30.5 30.5 0 16.9 13.7 30.5 30.5 30.5h90.7c16.9 0 30.5-13.7 30.5-30.5 0.1-8.2-3.1-15.9-8.9-21.6z"  horiz-adv-x="1024" />

    
    <glyph glyph-name="quxiao" unicode="&#59309;" d="M553.457 380.792l134.16 134.16c11.06 11.06 11.06 28.992 0 40.052-11.061 11.059-28.993 11.059-40.051-0.001l-134.16-134.159-134.167 134.168c-11.06 11.06-28.99 11.06-40.048 0.002-11.059-11.061-11.059-28.99 0-40.05L473.356 380.8 339.193 246.64c-11.057-11.058-11.051-28.992 0.006-40.052 11.057-11.054 28.993-11.06 40.049-0.003l134.16 134.16 134.164-134.163c11.06-11.06 28.99-11.06 40.05 0 11.062 11.06 11.058 28.987-0.001 40.047L553.457 380.792zM512 831.986c-246.635 0-447.309-200.933-447.309-447.968S265.366-63.985 512-63.985c246.672 0 447.309 201.005 447.309 448.003S758.635 831.986 512 831.986zM512 9c-206.462 0-374.468 168.217-374.468 375.02 0 206.768 168.004 375.02 374.468 375.02 206.5 0 374.468-168.254 374.469-375.02C886.469 177.214 718.5 9 512 9z"  horiz-adv-x="1024" />

    
    <glyph glyph-name="xitongtongzhi" unicode="&#58989;" d="M513.27488 887.38304c-278.71744 0-504.65792-225.9456-504.65792-504.66304 0-278.71744 225.9456-504.65792 504.65792-504.65792 278.72256 0 504.66304 225.9456 504.66304 504.65792 0 278.71744-225.94048 504.66304-504.66304 504.66304z m46.42816-289.83808v-430.57152s0.08192-12.80512-11.22816-30.5152c-7.37792-11.56608-14.72512-18.62656-21.98016-20.71552-9.8816-2.8416-41.1136 0-41.1136 0l-127.2832 127.21152-98.5088-0.08192s-11.19232 2.11968-19.84512 12.94848c-7.82848 9.7792-10.19904 19.1488-10.19904 19.1488V487.49056s-0.02048 10.26048 8.064 18.81088c12.33408 13.04576 24.192 13.44 24.192 13.44h92.9792l130.92864 127.13472s32.03072 2.77504 42.2144 0c7.41376-2.02752 13.91104-8.21248 22.2976-21.18144 11.08992-17.16224 9.48224-28.14976 9.48224-28.14976z m91.76064-332.47744a35.61472 35.61472 0 0 0-25.21088 10.44992 35.61984 35.61984 0 0 0 0 50.46784 78.40256 78.40256 0 0 1 22.7328 55.30112 78.44864 78.44864 0 0 1-22.7328 55.28064 35.6096 35.6096 0 0 0 0 50.46784 35.50208 35.50208 0 0 0 50.42176 0 149.53984 149.53984 0 0 0 43.55584-105.74848 149.51424 149.51424 0 0 0-43.55584-105.76384 35.6096 35.6096 0 0 0-25.21088-10.45504z m103.13216-80.72704c-13.64992-14.80192-35.7632-14.80192-49.28 0-13.696 14.62784-13.696 38.528 0 53.31968 33.8944 36.83328 55.12704 87.51616 55.12704 143.63136 0 56.09984-21.07904 106.78784-54.9888 143.62624-13.66016 14.78144-13.66016 38.67136 0 53.31456l0.0256 0.01536c13.6448 14.80704 35.59424 14.80704 49.28 0l0.28672-0.30208c46.43328-50.3808 75.0592-119.89504 75.0592-196.64384-0.00512-76.89216-28.92288-146.5344-75.50976-196.96128z"  horiz-adv-x="1024" />

    
    <glyph glyph-name="you" unicode="&#58912;" d="M386.844 725.333l-45.51-39.822 256-301.511-256-301.511 39.822-39.822L682.666 384z"  horiz-adv-x="1024" />

    
    <glyph glyph-name="zuo" unicode="&#58913;" d="M637.156 725.333l45.51-39.822-256-301.511 256-301.511-39.822-39.822L341.334 384z"  horiz-adv-x="1024" />

    
    <glyph glyph-name="sousuo" unicode="&#58975;" d="M960.984615-9.846154l-212.676923 212.676923c55.138462 70.892308 94.523077 157.538462 94.523077 252.061539 0 220.553846-181.169231 401.723077-401.723077 401.723077s-401.723077-181.169231-401.723077-401.723077 181.169231-401.723077 401.723077-401.723077c94.523077 0 181.169231 31.507692 252.061539 86.646154l212.676923-212.676923c7.876923-7.876923 15.753846-15.753846 31.507692-15.753847 7.876923 0 23.630769 7.876923 31.507692 15.753847 15.753846 23.630769 15.753846 47.261538-7.876923 63.015384z m-393.846153 165.415385c-39.384615-15.753846-86.646154-23.630769-126.03077-23.630769-47.261538 0-86.646154 7.876923-126.030769 23.630769-39.384615 15.753846-70.892308 39.384615-102.4 70.892307s-55.138462 63.015385-70.892308 102.4c-15.753846 39.384615-23.630769 86.646154-23.630769 126.03077s7.876923 86.646154 23.630769 126.030769c15.753846 39.384615 39.384615 70.892308 70.892308 102.4s63.015385 55.138462 102.4 70.892308c39.384615 15.753846 86.646154 23.630769 126.030769 23.630769 47.261538 0 86.646154-7.876923 126.03077-23.630769 39.384615-15.753846 70.892308-39.384615 102.4-70.892308s55.138462-63.015385 70.892307-102.4c15.753846-39.384615 23.630769-86.646154 23.630769-126.030769s-7.876923-86.646154-23.630769-126.03077c-15.753846-39.384615-39.384615-70.892308-70.892307-102.4s-70.892308-55.138462-102.4-70.892307z"  horiz-adv-x="1024" />

    
    <glyph glyph-name="gold" unicode="&#58889;" d="M511.85436445 794.32817778a410.18254222 410.18254222 0 0 1-409.9640889-410.40099556 410.18254222 410.18254222 0 0 1 409.9640889-410.32817777c226.46328889 0 409.96408889 183.71925333 409.96408888 410.32817777a410.18254222 410.18254222 0 0 1-409.96408888 410.40099556z m0-778.27640889A367.72977778 367.72977778 0 0 0 144.27022222 384a367.72977778 367.72977778 0 0 0 367.58414223 367.94823111 367.72977778 367.72977778 0 0 0 367.51132444-367.94823111 367.72977778 367.72977778 0 0 0-367.51132444-367.87541333zM511.85436445 893.28753778a509.14190222 509.14190222 0 0 1-508.9234489-509.36035556 509.14190222 509.14190222 0 0 1 508.9234489-509.28753777A509.14190222 509.14190222 0 0 1 1020.77781333 384a509.14190222 509.14190222 0 0 1-508.99626666 509.36035555z m0-962.14129778A452.56248889 452.56248889 0 0 0 59.51032889 384a452.56248889 452.56248889 0 0 0 452.34403556 452.85376 452.56248889 452.56248889 0 0 0 452.34403555-452.85376 452.56248889 452.56248889 0 0 0-452.34403555-452.78094222zM670.16021333 630.8522666700001c-20.82588445-4.15061333-35.46225778-30.43783111-35.46225778-30.43783112L511.78154667 471.09006222 391.19530667 600.41443555s-14.27228445 24.46677333-32.47672889 30.5106489c-51.11808 16.74808889-34.80689778-30.58346667-34.80689778-30.58346667L479.30481778 426.96248889v-25.48622222H349.47072v-0.14563556H348.88817778a23.22887111 23.22887111 0 0 1 0-46.38492444H479.232v-48.64227556H349.10663111a23.22887111 23.22887111 0 0 1 0-46.45774222H479.232v-96.33792a30.14656 30.14656 0 0 1 60.22030222 0l0.14563556-14.19946667V259.84568889h132.16426667a23.15605333 23.15605333 0 0 1 0 46.38492444v0.07281778H539.67075555v48.64227556h132.16426667a23.15605333 23.15605333 0 0 1 0 46.38492444v0.07281778H539.67075555v25.48622222l157.6504889 173.52476444s21.99096889 40.48668445-27.16103112 30.5106489z"  horiz-adv-x="1024" />

    
    <glyph glyph-name="quxiao1" unicode="&#58998;" d="M582.7 383.9l361.8 361.8c9.5 9.5 14.8 22.2 14.8 35.7s-5.3 26.2-14.8 35.7c-9.5 9.5-22.2 14.8-35.7 14.8-13.5 0-26.2-5.3-35.7-14.8L511.3 455.3 149.5 817.1c-9.5 9.5-22.2 14.8-35.7 14.8-13.5 0-26.2-5.3-35.7-14.8-9.5-9.5-14.8-22.2-14.8-35.7s5.2-26.2 14.8-35.7l361.8-361.8L78.1 22.1c-9.5-9.5-14.8-22.2-14.8-35.7 0-13.5 5.2-26.2 14.8-35.7 9.5-9.5 22.2-14.8 35.7-14.8 13.5 0 26.2 5.2 35.7 14.8l361.8 361.8 361.8-361.8c9.5-9.5 22.2-14.8 35.7-14.8 13.5 0 26.2 5.2 35.7 14.8 9.5 9.5 14.8 22.2 14.8 35.7 0 13.5-5.3 26.2-14.8 35.7L582.7 383.9z"  horiz-adv-x="1024" />

    
    <glyph glyph-name="loudou" unicode="&#59114;" d="M894 646c1.2 1.2 2.2 2.5 3.2 3.8 17.5 19.9 27 45.3 27 71.9 0 60.2-48.9 109.1-109.1 109.1H202.5c-60.2 0-109.1-49-109.1-109.1 0-26 9.1-50.7 25.8-70.4 1.2-2 2.7-3.8 4.4-5.5l242.1-242v-262.3c0-9.3 4.1-17.6 10.7-23.2 0.4-0.3 0.7-0.7 1.1-1.1L595-59.1c5.6-4.8 12.5-7.1 19.4-7.1 8.5 0 16.9 3.6 22.8 10.6 5.7 6.7 7.9 15.2 6.8 23.3V395.9L894 646z m-723.3 39.3c-0.8 1.2-1.7 2.3-2.7 3.4-8.6 8.9-13.3 20.7-13.3 33.1 0 26.4 21.5 47.8 47.8 47.8h612.6c26.4 0 47.8-21.4 47.8-47.8 0-12.3-4.7-24-13.1-32.9-0.6-0.6-1.1-1.3-1.7-2L591.6 430.2c-5.7-5.7-9-13.5-9-21.7v-378.7L426.9 153.7V416.4c0 8.1-3.2 15.9-9 21.7L170.7 685.3z m0 0"  horiz-adv-x="1024" />

    
    <glyph glyph-name="dingwei" unicode="&#58968;" d="M512-104.075636a24.436364 24.436364 0 0 0-20.014545 10.379636l-299.473455 429.381818a24.017455 24.017455 0 0 0-3.816727 8.704C165.608727 379.904 147.874909 430.405818 141.870545 484.538182 145.687273 448.418909 139.636364 486.818909 139.636364 525.730909 139.636364 729.925818 306.688 896 512 896c47.616 0 95.418182-11.450182 142.010182-33.978182a422.306909 422.306909 0 0 0 117.992727-86.434909 433.338182 433.338182 0 0 0 81.454546-118.132364c20.200727-43.985455 30.906182-89.506909 30.906181-131.67709a368.174545 368.174545 0 0 0-52.130909-188.974546L532.014545-93.556364a24.482909 24.482909 0 0 0-20.06109-10.472727zM233.146182 362.635636l278.807273-399.825454 279.598545 400.942545a319.906909 319.906909 0 0 1 43.985455 162.071273c0 71.261091-36.910545 152.064-98.769455 216.110545C672.116364 808.96 590.196364 847.453091 512 847.453091c-178.408727 0-323.490909-144.290909-323.490909-321.722182 0-33.792 5.259636-67.211636 15.639273-99.188364 15.127273-45.521455 38.632727-84.712727 68.887272-117.527272l-39.889454 53.620363z m278.202182-30.394181c-96.209455 0-174.545455 77.824-174.545455 173.521454s78.336 173.521455 174.545455 173.521455c96.256 0 174.545455-77.824 174.545454-173.521455s-78.289455-173.521455-174.545454-173.521454z m0 298.496c-69.306182 0-125.672727-56.040727-125.672728-124.974546a125.486545 125.486545 0 0 1 125.672728-124.974545c69.352727 0 125.672727 56.040727 125.672727 124.974545a125.486545 125.486545 0 0 1-125.672727 124.974546z"  horiz-adv-x="1024" />

    
    <glyph glyph-name="tubiao-" unicode="&#59302;" d="M332.8 102.4H230.4a47.04 47.04 0 0 0-51.2 51.2v512c0 45.44 8.96 51.2 51.2 51.2H640c39.68 0 51.84-13.12 51.84-51.2v-51.2a25.92 25.92 0 1 1 51.52 0V665.6c0 75.52-24.32 102.4-103.36 102.4H230.4C180.16 768 128 761.92 128 667.84v-530.88a99.2 99.2 0 0 1 4.48-30.08 80.64 80.64 0 0 1 78.72-56h121.6a25.6 25.6 0 0 1 0 51.52zM281.6 614.72a25.92 25.92 0 1 1 0-51.84h307.2a25.92 25.92 0 1 1 0 51.84zM322.24 461.12c21.12 0 0 0 0 0zM332.8 461.12H281.6a25.92 25.92 0 1 1 0-51.84h51.2a25.92 25.92 0 1 1 0 51.84zM640 512a256 256 0 1 1 256-256 256 256 0 0 1-256 256z m0-460.16A204.48 204.48 0 1 0 844.48 256 204.8 204.8 0 0 0 640 51.52zM761.6 253.12h-104v109.44a21.44 21.44 0 0 1-42.56 0v-128a21.44 21.44 0 0 1 18.24-24h128a21.44 21.44 0 1 1 0 42.56z"  horiz-adv-x="1024" />

    
    </font>
</defs>
</svg>
